<svg preserveAspectRatio="none" width="100%" height="100%" overflow="visible" style="display: block;" viewBox="0 0 35.443 5.26029" fill="none" xmlns="http://www.w3.org/2000/svg">
<g id="Group">
<path id="Vector" d="M0.145039 5.11604C0.0967258 5.11604 0.0604164 5.11003 0.0363094 5.098C0.0121032 5.08597 0 5.06534 0 5.03658C0 4.99839 0.015575 4.97174 0.0471224 4.95715C0.0785707 4.94253 0.118254 4.93095 0.166666 4.92108C0.277975 4.89702 0.357438 4.86224 0.405851 4.81629C0.454164 4.77077 0.47837 4.69992 0.47837 4.60332V2.56876C0.430057 2.56876 0.374205 2.56747 0.311705 2.56532C0.248709 2.56273 0.178669 2.5593 0.101487 2.55458C0.0868048 2.54986 0.066468 2.53311 0.0397816 2.50391C0.0129961 2.47514 0 2.44851 0 2.42447C0 2.41503 0.00734127 2.40644 0.0216269 2.39913C0.0358133 2.39183 0.0457335 2.38583 0.0505946 2.3811C0.137697 2.33774 0.212499 2.29951 0.275396 2.26558C0.338094 2.2321 0.405851 2.19816 0.47837 2.16467C0.47837 1.74643 0.530156 1.39774 0.634223 1.11863C0.738191 0.839936 0.872416 0.61836 1.0365 0.45475C1.20099 0.291139 1.37489 0.174781 1.55882 0.104771C1.74265 0.0352083 1.91398 0 2.0738 0C2.34443 0 2.54513 0.0407935 2.67548 0.122807C2.80594 0.20484 2.87151 0.307885 2.87151 0.432845C2.87151 0.529035 2.8474 0.601177 2.79899 0.649272C2.75068 0.697367 2.69284 0.721425 2.62499 0.721425C2.58143 0.721425 2.54175 0.704669 2.50544 0.67074C2.46913 0.637258 2.42687 0.598598 2.37856 0.555235C2.31556 0.492547 2.23828 0.433708 2.14632 0.378311C2.05445 0.322925 1.92866 0.295435 1.76894 0.295435C1.54156 0.295435 1.35456 0.394204 1.20694 0.591306C1.05942 0.788399 0.986007 1.09156 0.986007 1.50038V2.13505C0.986007 2.16382 0.994141 2.18314 1.0114 2.19258C1.02827 2.20246 1.04642 2.20718 1.06577 2.20718H1.97231C1.99652 2.20718 2.01814 2.21449 2.03759 2.22866C2.05693 2.24326 2.06646 2.26259 2.06646 2.2862C2.06646 2.32013 2.06298 2.35576 2.05564 2.39441C2.0483 2.43306 2.03759 2.46655 2.02281 2.49532C2.00812 2.53397 1.9866 2.55287 1.95763 2.55287H1.1237C1.06577 2.55287 1.02827 2.56145 1.0114 2.5782C0.994637 2.59495 0.986007 2.6177 0.986007 2.6469V4.60201C0.986007 4.69823 1.01746 4.76907 1.08005 4.81502C1.14265 4.86098 1.27083 4.89576 1.46428 4.91977C1.57559 4.93439 1.63084 4.97261 1.63084 5.03531C1.63084 5.06408 1.61874 5.0847 1.59463 5.09669C1.57043 5.10872 1.53412 5.11473 1.48581 5.11473C1.34077 5.11473 1.21259 5.10872 1.10158 5.09669C0.990273 5.0847 0.872019 5.07868 0.746326 5.07868C0.663886 5.07868 0.596624 5.08126 0.543449 5.08597C0.490474 5.09072 0.43472 5.09669 0.376883 5.10402C0.319046 5.1113 0.241269 5.11473 0.144543 5.11473L0.145039 5.11604Z" fill="var(--fill-0, #1C2B43)"/>
<path id="Vector_2" d="M2.48427 5.11702C2.43576 5.11702 2.39965 5.111 2.37544 5.09897C2.35134 5.08698 2.33914 5.06636 2.33914 5.03758C2.33914 4.99936 2.35382 4.97403 2.38279 4.96199C2.41166 4.94997 2.45273 4.93666 2.5062 4.9225C2.59816 4.89844 2.66681 4.86369 2.71294 4.81773C2.75917 4.77179 2.78209 4.7155 2.78209 4.64811V3.09706C2.78209 2.96738 2.76255 2.85444 2.72425 2.75782C2.68546 2.66162 2.6055 2.60152 2.48507 2.57747C2.46562 2.57275 2.44876 2.56071 2.43408 2.5414C2.41949 2.52207 2.41265 2.50317 2.41265 2.48386C2.41265 2.43576 2.43408 2.40698 2.47773 2.39712C2.60332 2.35846 2.73507 2.30221 2.87316 2.22749C3.01086 2.15278 3.1183 2.09181 3.19608 2.04371C3.22495 2.02438 3.24786 2.01107 3.26502 2.00421C3.28189 1.9969 3.29538 1.99346 3.3048 1.99346C3.32901 1.99346 3.34102 2.01021 3.34102 2.04414C3.34102 2.05873 3.33982 2.0948 3.33764 2.15234C3.33506 2.20989 3.33278 2.27731 3.3303 2.35417C3.32762 2.43104 3.32415 2.5079 3.31949 2.5852C3.31949 2.59508 3.32415 2.5998 3.33417 2.5998C3.41145 2.50361 3.49736 2.41945 3.59151 2.3473C3.68556 2.27516 3.78218 2.21762 3.88149 2.17425C3.9804 2.13087 4.07623 2.10941 4.1681 2.10941C4.26958 2.10941 4.35291 2.13087 4.41859 2.17425C4.48406 2.21762 4.51651 2.27302 4.51651 2.34001C4.51651 2.3881 4.50301 2.44092 4.47672 2.49888C4.45004 2.55643 4.41512 2.6071 4.37147 2.65046C4.32782 2.69384 4.28218 2.7153 4.23377 2.7153C4.2049 2.7153 4.17325 2.7093 4.13962 2.69727C4.1055 2.68525 4.06968 2.66979 4.03089 2.65046C3.992 2.63586 3.95361 2.6217 3.91472 2.6071C3.87593 2.5925 3.83754 2.58563 3.79865 2.58563C3.68258 2.58563 3.57028 2.62643 3.46155 2.70844C3.35282 2.79045 3.29836 2.95148 3.29836 3.19196V4.64937C3.29836 4.71206 3.33199 4.76364 3.39975 4.80439C3.4676 4.8452 3.56165 4.88513 3.68258 4.92337C3.73556 4.93797 3.77663 4.95214 3.80599 4.96675C3.83536 4.9813 3.84964 5.00536 3.84964 5.03885C3.84964 5.09169 3.80123 5.11833 3.7046 5.11833C3.55957 5.11833 3.44945 5.11231 3.37475 5.10027C3.29965 5.08825 3.19945 5.08223 3.07385 5.08223C2.99141 5.08223 2.92544 5.0848 2.87445 5.08956C2.82356 5.09426 2.77038 5.10027 2.71473 5.10755C2.65898 5.11489 2.58298 5.11833 2.48636 5.11833L2.48427 5.11702Z" fill="var(--fill-0, #1C2B43)"/>
<path id="Vector_3" d="M6.03122 5.19572C5.76059 5.19572 5.51624 5.13303 5.29868 5.00809C5.08123 4.8831 4.90801 4.71138 4.78023 4.49236C4.65206 4.27377 4.58817 4.02472 4.58817 3.74561C4.58817 3.54377 4.62785 3.34668 4.70781 3.15388C4.78758 2.9615 4.89988 2.78586 5.04492 2.62741C5.18995 2.46853 5.3592 2.34228 5.55255 2.24867C5.7459 2.15505 5.95354 2.10782 6.17626 2.10782C6.45652 2.10782 6.70949 2.17524 6.93429 2.30965C7.15919 2.44449 7.33786 2.62097 7.4708 2.83997C7.60383 3.05897 7.6703 3.29816 7.6703 3.55794C7.6703 3.83707 7.60859 4.10157 7.48558 4.3515C7.36207 4.60187 7.17992 4.80498 6.93816 4.96127C6.69649 5.1176 6.39382 5.19572 6.03122 5.19572ZM6.1837 4.97931C6.34808 4.97931 6.4953 4.94797 6.62606 4.88571C6.75641 4.82341 6.8584 4.7221 6.93082 4.58251C6.98876 4.47216 7.02754 4.33733 7.04689 4.17847C7.06643 4.01957 7.07586 3.87056 7.07586 3.73102C7.07586 3.5 7.0336 3.27754 6.94897 3.0637C6.86435 2.84985 6.7461 2.67422 6.59372 2.53724C6.44134 2.40026 6.26128 2.33154 6.05324 2.33154C5.92289 2.33154 5.80543 2.35217 5.70146 2.39295C5.59739 2.43374 5.50196 2.50975 5.41485 2.62011C5.31813 2.74034 5.25513 2.8872 5.22617 3.06027C5.1973 3.23332 5.18261 3.40636 5.18261 3.57987C5.18261 3.81558 5.22616 4.04062 5.31287 4.25446C5.40017 4.46873 5.51842 4.64307 5.66823 4.77747C5.81803 4.91231 5.99025 4.97931 6.1837 4.97931Z" fill="var(--fill-0, #1C2B43)"/>
<path id="Vector_4" d="M8.02879 5.11787C7.98514 5.11787 7.95022 5.11185 7.92334 5.09986C7.89655 5.08783 7.88376 5.06721 7.88376 5.03844C7.88376 5.00019 7.89834 4.97487 7.92721 4.96284C7.95618 4.95085 7.99715 4.93752 8.05082 4.92334C8.12324 4.90402 8.19318 4.87782 8.26094 4.84391C8.32879 4.81043 8.36242 4.74556 8.36242 4.64896V3.09791C8.36242 2.96823 8.34903 2.85745 8.32264 2.76598C8.29596 2.67452 8.21996 2.61225 8.09427 2.57832C8.07493 2.56889 8.05806 2.55772 8.04338 2.54569C8.02879 2.53367 8.02185 2.51305 8.02185 2.48428C8.02185 2.43147 8.04338 2.4027 8.08693 2.39754C8.25618 2.35417 8.39387 2.30135 8.50052 2.23867C8.60677 2.1764 8.71083 2.10641 8.81222 2.02954C8.82691 2.02009 8.8398 2.0115 8.85191 2.0042C8.86401 1.9969 8.8774 1.99346 8.89159 1.99346C8.90121 1.99346 8.90974 1.99819 8.91708 2.00807C8.92443 2.01795 8.9279 2.02953 8.9279 2.04414C8.9279 2.07806 8.92185 2.14633 8.90974 2.24983C8.89764 2.35332 8.89159 2.43877 8.89159 2.50576C8.89159 2.52509 8.89288 2.54311 8.89506 2.55987C8.89774 2.57662 8.90121 2.58777 8.90587 2.5925C9.07512 2.43361 9.25508 2.3138 9.44635 2.2318C9.63722 2.15021 9.84644 2.10898 10.0735 2.10898C10.3006 2.10898 10.5062 2.20517 10.661 2.39754C10.8156 2.58993 10.8934 2.82781 10.8934 3.11165V4.64808C10.8934 4.7443 10.927 4.80786 10.9948 4.8392C11.0624 4.87054 11.1324 4.89801 11.205 4.92207C11.2434 4.93668 11.281 4.95211 11.3173 4.96886C11.3534 4.98564 11.3715 5.01355 11.3715 5.05173C11.3715 5.0805 11.3548 5.09855 11.3206 5.10588C11.2864 5.11316 11.2555 5.1166 11.2265 5.1166C11.1299 5.1166 11.0548 5.11316 11.0017 5.10588C10.9485 5.09855 10.8975 5.09254 10.8492 5.08783C10.8009 5.08308 10.7331 5.0805 10.6463 5.0805C10.5639 5.0805 10.4966 5.08308 10.4435 5.08783C10.3904 5.09254 10.3359 5.09855 10.2803 5.10588C10.2246 5.11316 10.1487 5.1166 10.052 5.1166C10.0278 5.1166 9.99763 5.11316 9.96132 5.10588C9.92501 5.09855 9.90686 5.0805 9.90686 5.05173C9.90686 5.01311 9.92501 4.98564 9.96132 4.96886C9.99763 4.95211 10.0351 4.93625 10.0735 4.92207C10.146 4.89801 10.216 4.87054 10.2837 4.8392C10.3516 4.80786 10.3852 4.7443 10.3852 4.64808V3.13312C10.3852 2.92144 10.3261 2.75696 10.2074 2.63888C10.0886 2.52121 9.93067 2.4598 9.73246 2.45508C9.55855 2.45508 9.40617 2.48299 9.27581 2.53796C9.14546 2.59336 9.02929 2.66206 8.9279 2.74366C8.90855 2.76298 8.89377 2.78831 8.88425 2.81923C8.87433 2.85058 8.86956 2.88063 8.86956 2.9094V4.64808C8.86956 4.7443 8.9032 4.80912 8.97105 4.84304C9.03881 4.87656 9.10875 4.90315 9.18137 4.92251C9.29268 4.95129 9.34794 4.98992 9.34794 5.038C9.34794 5.06677 9.33583 5.0874 9.31163 5.09942C9.28752 5.11146 9.25121 5.11743 9.2029 5.11743C9.10627 5.11743 9.02978 5.11403 8.97452 5.1067C8.91887 5.09942 8.86709 5.0934 8.81877 5.08871C8.77036 5.08394 8.7025 5.08137 8.6158 5.08137C8.53336 5.08137 8.46729 5.08394 8.41639 5.08871C8.3654 5.0934 8.31233 5.09942 8.25667 5.1067C8.20102 5.11403 8.12542 5.11787 8.02879 5.11787Z" fill="var(--fill-0, #1C2B43)"/>
<path id="Vector_5" d="M12.6501 5.19578C12.4131 5.19578 12.2282 5.12363 12.0953 4.97937C11.9624 4.83507 11.8959 4.62123 11.8959 4.33739V2.66354C11.8959 2.62488 11.8812 2.59741 11.8523 2.58065C11.8234 2.5639 11.7603 2.55531 11.6636 2.55531H11.6201C11.5958 2.55531 11.5752 2.53986 11.5583 2.50852C11.5415 2.47717 11.5328 2.44496 11.5328 2.41104C11.5328 2.40158 11.5402 2.38698 11.5544 2.36766C11.5691 2.34834 11.5786 2.33632 11.5833 2.33159C11.68 2.26417 11.768 2.19718 11.848 2.12977C11.9277 2.06235 12.0004 1.99622 12.0654 1.93138C12.1307 1.86655 12.1851 1.80771 12.2287 1.75446C12.2528 1.73041 12.2737 1.71023 12.2904 1.69305C12.3073 1.67631 12.3279 1.66772 12.3522 1.66772C12.3763 1.66772 12.3992 1.67245 12.4212 1.68231C12.4427 1.69219 12.4514 1.71366 12.4467 1.74716L12.4104 2.07179C12.4057 2.12462 12.4177 2.16069 12.4467 2.18001C12.4756 2.19933 12.5218 2.20879 12.5843 2.20879H13.4111C13.4304 2.20879 13.4474 2.22467 13.4621 2.25558C13.4766 2.28693 13.4835 2.32429 13.4835 2.36724C13.4835 2.41017 13.4763 2.45268 13.4621 2.49348C13.4474 2.53428 13.4304 2.55489 13.4111 2.55489H12.6932C12.5723 2.55489 12.4937 2.56477 12.4575 2.58365C12.4212 2.60298 12.403 2.66052 12.403 2.75671V4.17809C12.403 4.37043 12.4441 4.52201 12.5266 4.63239C12.6086 4.74317 12.7272 4.79815 12.8818 4.79815C13.0222 4.79815 13.1309 4.78742 13.2082 4.76549C13.2855 4.74404 13.3558 4.71138 13.4184 4.66801C13.4279 4.65859 13.4378 4.65342 13.4474 4.65342C13.4667 4.65342 13.48 4.66418 13.4871 4.68605C13.4939 4.70794 13.4978 4.73075 13.4978 4.75477C13.4978 4.77882 13.4581 4.82693 13.3782 4.89907C13.2984 4.97122 13.1944 5.03861 13.0666 5.10086C12.9384 5.16313 12.7994 5.19451 12.6496 5.19451L12.6501 5.19578Z" fill="var(--fill-0, #1C2B43)"/>
<path id="Vector_6" d="M13.9164 5.11702C13.8681 5.11702 13.8318 5.111 13.8076 5.09897C13.7835 5.08698 13.7714 5.06636 13.7714 5.03758C13.7714 4.99936 13.786 4.97403 13.8149 4.96199C13.8439 4.94997 13.8849 4.93666 13.9385 4.9225C14.0304 4.89844 14.099 4.86369 14.1452 4.81773C14.1914 4.77179 14.2143 4.7155 14.2143 4.64811V3.09706C14.2143 2.96738 14.1949 2.85444 14.1564 2.75782C14.1176 2.66162 14.0377 2.60152 13.9173 2.57747C13.8978 2.57275 13.8811 2.56071 13.8664 2.5414C13.8517 2.52207 13.8448 2.50317 13.8448 2.48386C13.8448 2.43576 13.8664 2.40698 13.9098 2.39712C14.0355 2.35846 14.1672 2.30221 14.3054 2.22749C14.443 2.15278 14.5505 2.09181 14.6282 2.04371C14.6572 2.02438 14.68 2.01107 14.6973 2.00421C14.7141 1.9969 14.7275 1.99346 14.737 1.99346C14.7611 1.99346 14.7733 2.01021 14.7733 2.04414C14.7733 2.05873 14.7719 2.0948 14.7698 2.15234C14.7673 2.20989 14.7651 2.27731 14.7624 2.35417C14.7599 2.43104 14.7565 2.5079 14.7516 2.5852C14.7516 2.59508 14.7565 2.5998 14.7664 2.5998C14.8436 2.50361 14.9295 2.41945 15.0236 2.3473C15.1178 2.27516 15.2145 2.21762 15.3137 2.17425C15.4125 2.13087 15.5084 2.10941 15.6004 2.10941C15.7018 2.10941 15.7851 2.13087 15.8507 2.17425C15.9163 2.21762 15.9488 2.27302 15.9488 2.34001C15.9488 2.3881 15.9353 2.44092 15.909 2.49888C15.8822 2.55643 15.8472 2.6071 15.8037 2.65046C15.76 2.69384 15.7143 2.7153 15.666 2.7153C15.637 2.7153 15.6056 2.7093 15.5719 2.69727C15.5378 2.68525 15.5019 2.66979 15.4631 2.65046C15.4242 2.63586 15.3858 2.6217 15.347 2.6071C15.3081 2.5925 15.2698 2.58563 15.2308 2.58563C15.1147 2.58563 15.0025 2.62643 14.8937 2.70844C14.7849 2.79045 14.7305 2.95148 14.7305 3.19196V4.64937C14.7305 4.71206 14.7643 4.76364 14.8321 4.80439C14.8997 4.8452 14.994 4.88513 15.1147 4.92337C15.1678 4.93797 15.2088 4.95214 15.2381 4.96675C15.2676 4.9813 15.2818 5.00536 15.2818 5.03885C15.2818 5.09169 15.2334 5.11833 15.1367 5.11833C14.9918 5.11833 14.8817 5.11231 14.807 5.10027C14.7318 5.08825 14.6317 5.08223 14.5061 5.08223C14.4236 5.08223 14.3576 5.0848 14.3066 5.08956C14.2558 5.09426 14.2026 5.10027 14.1468 5.10755C14.0912 5.11489 14.0153 5.11833 13.9186 5.11833L13.9164 5.11702Z" fill="var(--fill-0, #1C2B43)"/>
<path id="Vector_7" d="M17.5952 5.19572C17.3246 5.19572 17.0802 5.13303 16.8627 5.00809C16.6452 4.8831 16.472 4.71138 16.3442 4.49236C16.2161 4.27377 16.1522 4.02472 16.1522 3.74561C16.1522 3.54377 16.1919 3.34668 16.2718 3.15388C16.3516 2.9615 16.4639 2.78586 16.6089 2.62741C16.754 2.46853 16.9232 2.34228 17.1166 2.24867C17.3099 2.15505 17.5175 2.10782 17.7403 2.10782C18.0204 2.10782 18.2734 2.17524 18.4983 2.30965C18.7232 2.44449 18.9019 2.62097 19.0349 2.83997C19.1678 3.05897 19.2343 3.29816 19.2343 3.55794C19.2343 3.83707 19.1725 4.10157 19.0496 4.3515C18.926 4.60187 18.7439 4.80498 18.5022 4.96127C18.2604 5.1176 17.9578 5.19572 17.5952 5.19572ZM17.7476 4.97931C17.9122 4.97931 18.0593 4.94797 18.1902 4.88571C18.3204 4.82341 18.4223 4.7221 18.4948 4.58251C18.5528 4.47216 18.5915 4.33733 18.611 4.17847C18.6303 4.01957 18.6399 3.87056 18.6399 3.73102C18.6399 3.5 18.5976 3.27754 18.513 3.0637C18.4283 2.84985 18.3101 2.67422 18.1577 2.53724C18.0053 2.40026 17.8254 2.33154 17.6172 2.33154C17.4869 2.33154 17.3695 2.35217 17.2655 2.39295C17.1614 2.43374 17.0661 2.50975 16.9789 2.62011C16.882 2.74034 16.819 2.8872 16.7903 3.06027C16.7613 3.23332 16.7466 3.40636 16.7466 3.57987C16.7466 3.81558 16.7903 4.04062 16.8769 4.25446C16.9642 4.46873 17.0824 4.64307 17.2323 4.77747C17.382 4.91231 17.5542 4.97931 17.7476 4.97931Z" fill="var(--fill-0, #1C2B43)"/>
<path id="Vector_8" d="M20.8457 5.25986C20.8357 5.25986 20.8262 5.2551 20.8167 5.24526C20.8069 5.23536 20.7998 5.22376 20.7952 5.20916L19.7872 2.72029C19.7536 2.62411 19.6999 2.54595 19.6275 2.48583C19.555 2.42572 19.4825 2.38622 19.41 2.36688C19.3712 2.35228 19.334 2.33554 19.2978 2.31622C19.2614 2.29689 19.2433 2.2707 19.2433 2.23678C19.2433 2.208 19.2614 2.18997 19.2978 2.18267C19.334 2.17537 19.3642 2.17193 19.3883 2.17193C19.4509 2.17193 19.5106 2.17451 19.5662 2.17923C19.6219 2.18396 19.6784 2.18997 19.7367 2.19727C19.7951 2.20457 19.855 2.208 19.918 2.208C19.9858 2.208 20.0532 2.20457 20.1209 2.19727C20.1886 2.18997 20.2551 2.18396 20.3204 2.17923C20.3856 2.17451 20.4519 2.17193 20.5198 2.17193C20.5392 2.17193 20.5682 2.17537 20.607 2.18267C20.6458 2.18997 20.6648 2.208 20.6648 2.23678C20.6648 2.2707 20.6467 2.29689 20.6103 2.31622C20.5741 2.33554 20.5365 2.35228 20.4982 2.36688C20.4498 2.38148 20.4123 2.41628 20.3859 2.47166C20.3592 2.52706 20.3462 2.58847 20.3462 2.65546C20.3462 2.71815 20.3584 2.78041 20.3825 2.84311L20.9479 4.29323C20.9527 4.31258 20.9648 4.32199 20.9843 4.32199C21.0037 4.32199 21.0157 4.31258 21.0206 4.29323L21.5134 3.12437C21.5377 3.06211 21.5532 3.00156 21.5605 2.94402C21.5679 2.88648 21.5714 2.83108 21.5714 2.77827C21.5714 2.67263 21.5304 2.58589 21.4479 2.51848C21.3655 2.45106 21.2834 2.40081 21.2014 2.36688C21.1624 2.35228 21.1253 2.33554 21.0892 2.31622C21.0529 2.29689 21.0348 2.2707 21.0348 2.23678C21.0348 2.208 21.0515 2.18997 21.0856 2.18267C21.1194 2.17537 21.1508 2.17193 21.1798 2.17193C21.2475 2.17193 21.3214 2.17794 21.4008 2.18997C21.4806 2.20198 21.5881 2.208 21.7237 2.208C21.8592 2.208 21.9749 2.20198 22.0717 2.18997C22.1683 2.17794 22.2556 2.17193 22.3328 2.17193C22.357 2.17193 22.3871 2.17537 22.4234 2.18267C22.4597 2.18997 22.4779 2.208 22.4779 2.23678C22.4779 2.2707 22.4597 2.29689 22.4234 2.31622C22.3871 2.33554 22.3496 2.35228 22.3112 2.36688C22.2581 2.38622 22.2037 2.41283 22.148 2.44632C22.0924 2.48025 22.0647 2.53995 22.0647 2.62668C22.0647 2.65546 22.0682 2.68809 22.0755 2.72416C22.0829 2.76023 22.0964 2.79974 22.1152 2.84311L22.6591 4.23528C22.6833 4.28808 22.7028 4.31472 22.717 4.31472C22.7364 4.31472 22.7559 4.29065 22.7748 4.24257L23.326 2.96549C23.3455 2.92727 23.3588 2.87875 23.3658 2.8212C23.3731 2.76366 23.3766 2.71771 23.3766 2.68422C23.3766 2.59748 23.3476 2.52792 23.2894 2.4751C23.2316 2.42229 23.1758 2.38622 23.1228 2.36688C23.0838 2.35228 23.0468 2.33554 23.0105 2.31622C22.9742 2.29689 22.9561 2.2707 22.9561 2.23678C22.9561 2.208 22.9742 2.18997 23.0105 2.18267C23.0468 2.17537 23.077 2.17193 23.1011 2.17193C23.2074 2.17193 23.292 2.17794 23.355 2.18997C23.4176 2.20198 23.5147 2.208 23.6451 2.208C23.737 2.208 23.8022 2.20457 23.841 2.19727C23.88 2.18997 23.9136 2.18396 23.9425 2.17923C23.9713 2.17451 24.0124 2.17193 24.066 2.17193C24.0949 2.17193 24.1263 2.17537 24.1601 2.18267C24.1938 2.18997 24.2109 2.208 24.2109 2.23678C24.2109 2.2707 24.1929 2.29689 24.1566 2.31622C24.1204 2.33554 24.0829 2.35228 24.0444 2.36688C23.9718 2.38622 23.902 2.44247 23.8341 2.53651C23.7664 2.63011 23.7085 2.73275 23.6601 2.84311L22.6665 5.20916C22.6518 5.24268 22.6302 5.25986 22.6013 5.25986C22.5819 5.25986 22.5623 5.24312 22.5434 5.20916L21.7893 3.3481C21.7745 3.30945 21.7603 3.28798 21.7457 3.28326C21.7311 3.28326 21.7142 3.3073 21.6948 3.3554L20.9043 5.20959C20.8897 5.24312 20.8698 5.25986 20.8457 5.25986Z" fill="var(--fill-0, #1C2B43)"/>
<path id="Vector_9" d="M24.17 5.13162C24.1069 5.13162 24.0564 5.1256 24.0176 5.11361C23.9786 5.10159 23.9597 5.08097 23.9597 5.05219C23.9597 5.01871 23.9791 4.99207 24.0176 4.97276C24.0564 4.9534 24.1163 4.93667 24.1989 4.92205C24.3197 4.89803 24.4185 4.84049 24.4963 4.74903C24.5736 4.65757 24.6246 4.52787 24.6487 4.35955C24.7065 3.9267 24.7574 3.51445 24.8011 3.1224C24.8447 2.73035 24.8795 2.37694 24.9064 2.06175C24.9327 1.747 24.9461 1.48805 24.9461 1.28624V1.16342C24.9461 1.12005 24.9435 1.08182 24.9386 1.04791C24.934 1.00927 24.9266 0.969762 24.9171 0.928958C24.9072 0.888175 24.8783 0.848671 24.8299 0.810011C24.7427 0.737878 24.6582 0.688493 24.5761 0.662303C24.4936 0.636103 24.397 0.612909 24.2861 0.593583C24.2377 0.584149 24.1989 0.566113 24.17 0.539486C24.141 0.513296 24.1264 0.48281 24.1264 0.449308C24.1264 0.411094 24.1492 0.3879 24.1955 0.380608C24.2411 0.373297 24.3008 0.369864 24.3732 0.369864C24.4215 0.369864 24.4954 0.372444 24.5942 0.377176C24.6931 0.381888 24.8011 0.38919 24.9171 0.398644C25.0333 0.408505 25.1407 0.41539 25.2399 0.420112C25.3388 0.424834 25.4127 0.427404 25.4611 0.427404C25.4948 0.427404 25.5241 0.437285 25.5483 0.456183C25.5724 0.475499 25.5892 0.504278 25.5993 0.542919C25.6234 0.629665 25.6476 0.720706 25.6717 0.816886C25.696 0.913076 25.7248 1.00712 25.7589 1.09815L26.9045 3.99112C26.9193 4.02505 26.9456 4.04523 26.9845 4.05251C27.0233 4.05983 27.0522 4.04649 27.0716 4.01301L28.5004 1.0552C28.5245 0.973621 28.5487 0.882163 28.573 0.781241C28.5972 0.680339 28.6165 0.591441 28.6308 0.514139C28.6455 0.451888 28.6697 0.420539 28.7033 0.420539H28.9644C29.1096 0.420539 29.2627 0.411094 29.4251 0.391769C29.587 0.372444 29.7091 0.362999 29.7912 0.362999C29.8153 0.362999 29.8469 0.366432 29.8853 0.373733C29.9241 0.381035 29.9431 0.40164 29.9431 0.435132C29.9431 0.468634 29.9298 0.495261 29.9033 0.514576C29.8766 0.533901 29.8274 0.557939 29.7549 0.586718C29.6918 0.610776 29.622 0.637383 29.5447 0.666162C29.4674 0.694932 29.3948 0.723702 29.327 0.752898C29.2787 0.772233 29.2377 0.804862 29.2036 0.850378C29.1695 0.89633 29.1527 0.945288 29.1527 0.998105C29.1527 1.33476 29.1588 1.6508 29.1708 1.94667C29.183 2.24253 29.1963 2.52638 29.2106 2.79777C29.2252 3.06959 29.2421 3.33754 29.2615 3.60204C29.2809 3.86657 29.2978 4.13582 29.3123 4.41021C29.3219 4.55922 29.3703 4.67343 29.4575 4.75291C29.5447 4.83234 29.6776 4.88902 29.8563 4.92249C29.9383 4.9371 29.9987 4.95384 30.0375 4.97319C30.076 4.99251 30.0955 5.01915 30.0955 5.05263C30.0955 5.08141 30.076 5.10202 30.0375 5.11401C29.9987 5.12604 29.9482 5.13206 29.8853 5.13206C29.7549 5.13206 29.647 5.12862 29.5623 5.12134C29.4778 5.11401 29.3967 5.10799 29.3194 5.10329C29.2421 5.09858 29.1476 5.096 29.0365 5.096C28.9399 5.096 28.8587 5.09814 28.7936 5.10329C28.7284 5.10799 28.658 5.11401 28.5834 5.12134C28.5083 5.12862 28.4055 5.13206 28.275 5.13206C28.2121 5.13206 28.1616 5.12604 28.1227 5.11401C28.0839 5.10202 28.0649 5.08141 28.0649 5.05263C28.0649 5.01915 28.0844 4.9912 28.1227 4.96975C28.1616 4.94826 28.2216 4.9324 28.304 4.92293C28.4443 4.90362 28.541 4.85423 28.5942 4.77523C28.6472 4.69575 28.6739 4.57211 28.6739 4.40375C28.6739 4.05765 28.6705 3.74507 28.6631 3.46593C28.6559 3.18682 28.645 2.91157 28.6303 2.63974C28.6157 2.36793 28.6014 2.0712 28.5868 1.74871C28.582 1.6959 28.5674 1.67056 28.5432 1.67313C28.5191 1.67571 28.4949 1.70105 28.4707 1.74871L26.8027 5.13206C26.7927 5.15613 26.7712 5.16942 26.7374 5.17155C26.7034 5.17412 26.6818 5.15826 26.6723 5.12478C26.4838 4.56222 26.2816 4.00786 26.0667 3.46206C25.8517 2.91629 25.6087 2.32843 25.3381 1.69804C25.328 1.67399 25.3113 1.66197 25.2871 1.66197C25.263 1.66197 25.2483 1.67399 25.2434 1.69804C25.2 2.0347 25.1602 2.34388 25.1239 2.62514C25.0877 2.90641 25.0596 3.18423 25.0406 3.45822C25.0213 3.73218 25.0118 4.0332 25.0118 4.35998C25.0118 4.48964 25.0527 4.60905 25.1352 4.71724C25.2171 4.82545 25.3332 4.89416 25.4831 4.92293C25.565 4.93754 25.6256 4.95427 25.6643 4.97359C25.7031 4.99294 25.7223 5.01953 25.7223 5.05306C25.7223 5.08184 25.7028 5.10242 25.6643 5.11444C25.6256 5.12648 25.5751 5.1325 25.512 5.1325C25.3816 5.1325 25.2836 5.12905 25.2184 5.12177C25.1533 5.11444 25.095 5.10843 25.0444 5.10373C24.9936 5.09902 24.9223 5.09644 24.8304 5.09644C24.7431 5.09644 24.6755 5.09858 24.6275 5.10373C24.5792 5.10843 24.5235 5.11444 24.4608 5.12177C24.3979 5.12905 24.3013 5.1325 24.1708 5.1325L24.17 5.13162Z" fill="var(--fill-0, #1C2B43)"/>
<path id="Vector_10" d="M32.9203 5.14564C32.872 5.14564 32.7644 5.14088 32.5974 5.13103C32.4308 5.12114 32.2397 5.11298 32.0246 5.1057C31.8092 5.09838 31.605 5.09499 31.4117 5.09499C31.315 5.09499 31.2338 5.09712 31.1686 5.10226C31.1034 5.10696 31.0331 5.11298 30.9583 5.12031C30.8833 5.12758 30.7806 5.13103 30.6502 5.13103C30.5872 5.13103 30.5366 5.12372 30.4978 5.10954C30.459 5.09499 30.44 5.07092 30.44 5.03744C30.44 4.9992 30.4595 4.97388 30.4978 4.96183C30.5366 4.94981 30.5967 4.9365 30.6791 4.92235C30.8626 4.88886 30.99 4.83345 31.0599 4.75659C31.1297 4.67974 31.1652 4.55475 31.1652 4.38128V1.13491C31.1652 0.961843 31.1302 0.839036 31.0599 0.766904C30.99 0.694752 30.8626 0.641944 30.6791 0.608016C30.5967 0.593413 30.5366 0.577957 30.4978 0.56122C30.459 0.544465 30.44 0.516985 30.44 0.478334C30.44 0.444842 30.4595 0.420785 30.4978 0.406192C30.5366 0.391588 30.5872 0.384723 30.6502 0.384723C30.7758 0.384723 30.8759 0.386013 30.9512 0.388156C31.0262 0.390735 31.0996 0.392888 31.172 0.395458C31.2446 0.398037 31.3388 0.39889 31.4548 0.39889C31.5321 0.39889 31.63 0.396321 31.7483 0.391588C31.8666 0.386866 31.9901 0.379575 32.1183 0.37012C32.2465 0.360676 32.3622 0.353374 32.4662 0.348652C32.5702 0.34393 32.6462 0.341341 32.6946 0.341341C33.1877 0.341341 33.6086 0.40018 33.9565 0.518264C34.3045 0.636349 34.5877 0.799533 34.805 1.00866C35.0228 1.21777 35.1832 1.46083 35.2871 1.73738C35.3914 2.01392 35.443 2.31107 35.443 2.6284C35.443 2.97452 35.3777 3.29915 35.2472 3.60232C35.1166 3.90548 34.9356 4.17341 34.7032 4.40662C34.471 4.6398 34.2028 4.82142 33.8983 4.95112C33.5931 5.08076 33.2669 5.14608 32.919 5.14608L32.9203 5.14564ZM32.8332 4.89313C33.2105 4.89313 33.5437 4.80167 33.8338 4.61918C34.1239 4.43625 34.3497 4.18375 34.5118 3.86167C34.674 3.53963 34.755 3.16903 34.755 2.75078C34.755 2.40468 34.6972 2.09551 34.581 1.82368C34.4649 1.55187 34.3103 1.32341 34.1168 1.13835C33.9237 0.953272 33.7058 0.81113 33.4643 0.712797C33.2225 0.614454 32.9781 0.56508 32.7316 0.56508C32.5236 0.56508 32.3462 0.571081 32.1987 0.583115C32.051 0.595139 31.9387 0.63249 31.8614 0.694751C31.7842 0.75745 31.7453 0.860514 31.7453 1.0048V4.22237C31.7453 4.41477 31.7984 4.55907 31.905 4.65524C32.0113 4.75146 32.148 4.81497 32.3148 4.84631C32.4813 4.87766 32.6544 4.89313 32.8332 4.89313Z" fill="var(--fill-0, #1C2B43)"/>
</g>
</svg>
