<svg preserveAspectRatio="none" width="100%" height="100%" overflow="visible" style="display: block;" viewBox="0 0 9.87534 7.22233" fill="none" xmlns="http://www.w3.org/2000/svg">
<g id="Group">
<path id="Vector" d="M4.65044 6.01851C4.25952 6.41745 4.25976 6.80118 4.61329 7.22074H4.79332C4.52076 6.82951 4.45533 6.55138 4.82957 6.22289C4.83144 6.29595 4.85449 7.13246 4.85664 7.22074H5.01245L5.01336 7.18208L5.0369 6.32075C4.98746 6.27111 4.93312 6.22406 4.87685 6.18099C4.80366 6.12388 4.72696 6.07096 4.65044 6.01851Z" fill="var(--fill-0, #1C2B43)"/>
<path id="Vector_2" d="M5.47703 3.34435C5.30851 3.25164 5.09973 3.16408 4.93522 3.10767C4.93451 3.10719 4.9336 3.10695 4.9329 3.10672C4.75072 3.05591 4.45442 2.97655 4.28471 2.94144C3.96015 2.87518 3.45202 2.60898 3.59513 2.27723C3.66055 2.12576 3.82012 2.19436 3.94297 2.17609C3.9884 2.1693 4.03147 2.16251 4.07125 2.15432C4.30802 2.0986 4.36804 1.97404 4.44429 1.86517C4.35438 1.81741 4.0649 1.67296 3.78953 1.74273C3.4659 1.82467 3.30705 2.02555 3.25479 2.19177C3.18842 2.40366 3.24114 2.64878 3.37929 2.8232C3.58571 3.08471 3.92486 3.16033 4.22964 3.22894C4.43417 3.27505 4.68975 3.34903 4.86251 3.41623C5.02326 3.475 5.23108 3.5546 5.37347 3.62858C5.4836 3.68921 5.59001 3.75265 5.6585 3.84609C5.70698 3.91538 5.66342 3.95963 5.60955 4.01371C5.46549 4.13522 5.28144 4.21364 5.09295 4.27475C5.09338 4.26258 5.11035 3.62881 5.11153 3.59041C4.90533 3.51035 4.65846 3.41202 4.39346 3.34459C4.06913 3.52814 3.75069 3.77538 3.89143 4.10619C3.97569 4.26983 4.14655 4.38454 4.29531 4.46484C4.29624 4.46532 4.29696 4.4658 4.2979 4.46627C4.54477 4.59995 4.81427 4.66385 5.07997 4.74228C5.10706 4.75004 5.1341 4.75846 5.1614 4.76686C5.28945 4.81252 5.57094 4.90621 5.60319 5.04244C5.61165 5.11219 5.55517 5.19554 5.51257 5.25151C5.38382 5.41399 5.22003 5.54508 5.05482 5.67409C5.05552 5.63664 5.07646 4.87551 5.07809 4.8177C5.03032 4.80341 4.98206 4.78981 4.935 4.77646C4.891 4.7636 4.847 4.75166 4.80296 4.73853C4.79849 4.7374 4.79428 4.73595 4.78981 4.73456C4.62458 4.68587 4.45722 4.63063 4.29506 4.54728C4.01028 4.69053 3.81399 4.95276 3.96816 5.27235C4.19622 5.71437 4.68647 5.90518 5.04022 6.22452C5.41467 6.5544 5.34875 6.82997 5.07646 7.22233H5.2565C5.70084 6.69931 5.54035 6.27391 5.05009 5.86281C4.81663 5.66357 4.54876 5.49312 4.35791 5.25173C4.31508 5.19554 4.25859 5.11219 4.26706 5.04266C4.2993 4.90643 4.58081 4.81278 4.70881 4.76713C4.7359 4.75868 4.76294 4.75026 4.79025 4.74255C4.79025 4.7568 4.81189 5.54278 4.81286 5.57953C4.95406 5.69143 5.0993 5.79934 5.22828 5.92601C5.48219 5.74806 5.75781 5.55821 5.90209 5.27235C6.05648 4.95206 5.85971 4.6908 5.57494 4.54701C5.37465 4.43982 5.15177 4.38454 4.93522 4.32228C4.89166 4.31011 4.8477 4.29723 4.80414 4.28341C4.6074 4.22185 4.41133 4.14106 4.26071 4.01394C4.20705 3.95986 4.16327 3.91561 4.21175 3.84631C4.28024 3.7529 4.38661 3.68969 4.4968 3.62881C4.56525 3.59253 4.66035 3.55131 4.75637 3.51246C4.75686 3.52557 4.77377 4.15816 4.77495 4.19726C4.87193 4.2298 4.96818 4.25603 5.06586 4.28319C5.23463 4.33117 5.41019 4.38222 5.57472 4.46462C5.72346 4.38454 5.89432 4.26983 5.97856 4.10595C6.12051 3.79176 5.80844 3.5265 5.47703 3.34435ZM3.89614 1.81811C3.91779 1.81811 3.98934 1.85745 3.98934 1.85745C3.98934 1.85745 3.91779 1.89702 3.89614 1.89702C3.87449 1.89702 3.8027 1.85745 3.8027 1.85745C3.8027 1.85745 3.87425 1.81811 3.89614 1.81811Z" fill="var(--fill-0, #1C2B43)"/>
<path id="Vector_3" d="M7.34782 1.5395C7.27486 1.60621 7.1887 1.65913 7.09365 1.69378L7.29085 2.02599C7.36641 2.15336 7.51397 2.22055 7.66039 2.1941C7.71758 2.1838 7.77452 2.1735 7.81807 2.16554C7.85173 2.15946 7.86563 2.11918 7.84301 2.09366L7.34782 1.5395Z" fill="var(--fill-0, #1C2B43)"/>
<path id="Vector_4" d="M8.54369 1.82282L7.56158 1.20942C7.52911 1.31125 7.47543 1.40421 7.40553 1.48287L7.81648 1.9078C8.0516 2.11735 8.23397 2.07473 8.4303 1.9633C8.48089 1.9345 8.52395 1.90945 8.54627 1.89446C8.57266 1.87713 8.57127 1.83828 8.54369 1.82282Z" fill="var(--fill-0, #1C2B43)"/>
<path id="Vector_5" d="M7.00665 1.71883C6.95561 1.73124 6.90218 1.73849 6.84735 1.74013C6.79086 1.74178 6.71245 1.73288 6.71245 1.73288C6.71245 1.73288 6.74968 1.85602 6.80472 2.03981C6.84498 2.17349 6.97068 2.26386 7.11092 2.25941L7.18744 2.25708C7.21873 2.25614 7.23897 2.2236 7.22578 2.19528L7.00665 1.71883Z" fill="var(--fill-0, #1C2B43)"/>
<path id="Vector_6" d="M9.22893 1.24299L7.57534 0.783177C7.59935 0.88525 7.60194 0.999972 7.581 1.10228L8.3209 1.52043C8.89004 1.83251 9.14748 1.46447 9.25343 1.30925C9.2701 1.28466 9.2576 1.25118 9.22893 1.24299Z" fill="var(--fill-0, #1C2B43)"/>
<path id="Vector_7" d="M9.83363 0.517768L7.32408 0.215983C7.32408 0.215983 6.53685 0.0776113 6.17227 0.425982C6.08072 0.513313 6.01576 0.631318 5.99643 0.78981C5.95857 1.10002 5.55609 1.17915 5.26119 1.18266L5.2466 1.72746C5.45844 1.56546 5.76391 1.40531 6.02116 1.39782C6.13317 1.39479 6.23581 1.42053 6.31772 1.48748L6.32004 1.4896C6.87574 1.94964 7.68466 1.42147 7.47356 0.7273C7.46532 0.700376 7.45494 0.674165 7.44363 0.648868C7.45144 0.645128 7.46085 0.643947 7.46953 0.64607C7.46953 0.64607 8.46062 0.909452 9.08155 1.06256C9.39266 1.13935 9.71339 0.977348 9.83462 0.681884C9.849 0.646765 9.862 0.61235 9.87301 0.57864C9.88224 0.550535 9.86309 0.52127 9.83363 0.517768Z" fill="var(--fill-0, #1C2B43)"/>
<path id="Vector_8" d="M2.52632 1.5395L2.03137 2.09367C2.00878 2.11918 2.02267 2.15946 2.05632 2.16555C2.09964 2.1735 2.15658 2.18381 2.21401 2.1941C2.36041 2.22056 2.50773 2.15359 2.58351 2.02599L2.78075 1.69378C2.68566 1.6589 2.59953 1.60599 2.52632 1.5395Z" fill="var(--fill-0, #1C2B43)"/>
<path id="Vector_9" d="M2.4731 1.48288C2.4032 1.40422 2.34953 1.31151 2.31706 1.20942L1.33491 1.82283C1.30737 1.83828 1.30597 1.87714 1.33232 1.89447C1.35468 1.90946 1.39775 1.93451 1.44835 1.9633C1.64441 2.07474 1.82681 2.11735 2.06217 1.90781L2.4731 1.48288Z" fill="var(--fill-0, #1C2B43)"/>
<path id="Vector_10" d="M3.02364 1.74013C2.9688 1.73849 2.91561 1.73124 2.8643 1.71883L2.64471 2.19528C2.63154 2.2236 2.65178 2.25614 2.68307 2.25708L2.75957 2.25941C2.89985 2.26386 3.02552 2.17349 3.06576 2.03981C3.12084 1.85602 3.15802 1.73288 3.15802 1.73288C3.15802 1.73288 3.08036 1.74178 3.02364 1.74013Z" fill="var(--fill-0, #1C2B43)"/>
<path id="Vector_11" d="M2.29348 1.10228C2.27277 0.999744 2.27512 0.885022 2.29912 0.783177L0.645508 1.24276C0.61656 1.25071 0.604089 1.28442 0.621044 1.30925C0.726956 1.4647 0.984425 1.83275 1.55352 1.52043L2.29348 1.10228Z" fill="var(--fill-0, #1C2B43)"/>
<path id="Vector_12" d="M4.62848 1.18266C4.3324 1.18172 3.91723 1.10518 3.87887 0.78981C3.85956 0.631319 3.79461 0.513313 3.70306 0.425982C3.3385 0.0776112 2.55123 0.215983 2.55123 0.215983L0.0416291 0.517768C0.0122046 0.52127 -0.00686276 0.550535 0.00232369 0.57864C0.0133851 0.612112 0.0263314 0.646765 0.0406865 0.681884C0.161886 0.97711 0.482678 1.13912 0.793817 1.06256C1.4147 0.909452 2.40578 0.64607 2.40578 0.64607C2.41448 0.643947 2.4239 0.645128 2.43166 0.648868C2.42038 0.674165 2.41002 0.700376 2.40178 0.7273C2.19067 1.42147 2.99958 1.94964 3.55526 1.4896C3.55596 1.4889 3.5569 1.48819 3.55761 1.48748C3.63952 1.42053 3.74212 1.39479 3.85416 1.39782C4.11753 1.40555 4.43123 1.57295 4.64356 1.7387L4.62848 1.18266Z" fill="var(--fill-0, #1C2B43)"/>
<path id="Vector_13" d="M6.08315 1.74124C5.80757 1.67147 5.51833 1.81593 5.4284 1.86368C5.50443 1.97231 5.5647 2.09711 5.80143 2.15284C5.84123 2.16102 5.88427 2.16782 5.92971 2.1746C6.05256 2.19287 6.21212 2.12427 6.27755 2.27574C6.42068 2.60774 5.91275 2.87369 5.58797 2.93995C5.47008 2.96383 5.27426 3.01487 5.1281 3.05373C5.12973 2.99309 5.20669 0.808273 5.20669 0.808035C5.20927 0.682787 5.26791 0.533879 5.52797 0.516092C5.56093 0.51375 5.58748 0.488225 5.592 0.455447L5.64306 0.0796853C5.64892 0.036372 5.61409 -0.00202061 5.57031 8.25552e-05C5.05584 0.0244376 4.68867 0.272373 4.68867 0.808035L4.7442 2.97787C4.82756 2.99989 4.89838 3.01931 4.93698 3.03009C4.94378 3.03196 4.94992 3.03384 4.95465 3.03501C5.13727 3.09914 5.29969 3.16517 5.48818 3.26514C5.83978 3.17406 6.24954 3.12888 6.49317 2.82171C6.7878 2.41692 6.66825 1.89694 6.08315 1.74124ZM5.97629 1.89553C5.95464 1.89553 5.88313 1.85597 5.88313 1.85597C5.88313 1.85597 5.95464 1.81664 5.97629 1.81664C5.99795 1.81664 6.06973 1.85597 6.06973 1.85597C6.06973 1.85597 5.99822 1.89553 5.97629 1.89553Z" fill="var(--fill-0, #1C2B43)"/>
<path id="Vector_14" fill-rule="evenodd" clip-rule="evenodd" d="M5.20668 0.808035C5.20668 0.808273 5.12806 3.05373 5.12806 3.05373L5.12714 3.09891C5.12714 3.09891 5.0125 3.05537 4.9546 3.03501C4.95202 3.03436 4.94916 3.03351 4.94601 3.03257C4.94338 3.03178 4.94053 3.03094 4.93742 3.03009C4.89885 3.01931 4.82751 2.99989 4.7442 2.97787L4.68867 0.808035C4.68867 0.272373 5.05579 0.0244376 5.57029 8.25552e-05C5.61408 -0.00202061 5.64891 0.0363721 5.643 0.0796853L5.59195 0.455447C5.58747 0.488225 5.56087 0.51375 5.52791 0.516092C5.26785 0.533879 5.20926 0.682787 5.20668 0.808035ZM5.11364 3.58925C5.11246 3.62765 5.09507 4.27359 5.09507 4.27359L5.09431 4.28928C5.09431 4.28928 5.07692 4.28436 5.06819 4.28178L5.04431 4.27515C4.95482 4.25031 4.86639 4.22574 4.77733 4.19585C4.77671 4.17612 4.77211 4.00502 4.7676 3.83878C4.76321 3.67601 4.75897 3.51753 4.7587 3.51106C4.75783 3.51149 4.75694 3.51184 4.75603 3.51221C4.75549 3.51242 4.75484 3.51266 4.75423 3.51293C4.7552 3.49327 4.7559 3.47383 4.75612 3.45439C4.87067 3.49496 4.97905 3.53703 5.07837 3.57557L5.11364 3.58925ZM5.05719 5.67248C5.05719 5.67248 5.07885 4.87391 5.08046 4.81606C5.03782 4.80333 4.99474 4.79112 4.9525 4.77914L4.93738 4.77487C4.91783 4.76916 4.89828 4.76362 4.87869 4.75808C4.85424 4.75115 4.82979 4.74422 4.80534 4.73694C4.80086 4.73575 4.79218 4.73297 4.79218 4.73297V4.74068C4.79218 4.74068 4.81406 5.54093 4.81524 5.57767C4.89504 5.64089 5.05434 5.76757 5.05434 5.76757L5.05719 5.67248ZM4.83215 6.14511C4.83215 6.14511 4.86554 6.17039 4.87944 6.18116C4.93571 6.22422 4.99006 6.27131 5.03949 6.32092L5.01595 7.18228L5.01503 7.22091H4.85919C4.85709 7.13263 4.83215 6.2231 4.83215 6.2231V6.14511Z" fill="var(--fill-0, #1C2B43)"/>
</g>
</svg>
