<svg preserveAspectRatio="none" width="100%" height="100%" overflow="visible" style="display: block;" viewBox="0 0 10.9737 21.8234" fill="none" xmlns="http://www.w3.org/2000/svg">
<g id="SVG" clip-path="url(#clip0_0_6)">
<path id="Vector" d="M9.43097 7.30689C9.20196 8.82731 7.62971 9.84857 7.62971 9.84857C7.62971 9.84857 6.42818 8.40481 6.65634 6.88413C6.8859 5.36192 8.45878 4.34179 8.45878 4.34179C8.45878 4.34179 9.65914 5.78622 9.43097 7.30689ZM9.41974 12.6348C8.41026 13.7972 6.5286 13.8275 6.5286 13.8275C6.5286 13.8275 6.28321 11.973 7.29264 10.8106C8.30208 9.64825 10.1849 9.61726 10.1849 9.61726C10.1849 9.61726 10.43 11.4727 9.41974 12.6348ZM7.33099 17.1409C5.88477 17.6854 4.21008 16.8246 4.21008 16.8246C4.21008 16.8246 4.88122 15.0803 6.32743 14.5359C7.77365 13.9913 9.44836 14.8521 9.44836 14.8521C9.44836 14.8521 8.77719 16.5965 7.33099 17.1409ZM2.99136 20.0483C1.46177 20.2839 0.000492126 19.0989 0.000492126 19.0989C0.000492126 19.0989 1.02009 17.5318 2.54995 17.2952C4.07955 17.0596 5.53967 18.2452 5.53967 18.2452C5.53967 18.2452 4.52096 19.8126 2.99136 20.0483ZM6.29168 2.88773C7.08785 4.21045 6.53186 5.99357 6.53186 5.99357C6.53186 5.99357 4.68255 5.63329 3.88639 4.31057C3.09021 2.98784 3.64646 1.20383 3.64646 1.20383C3.64646 1.20383 5.49551 1.565 6.29168 2.88773Z" fill="var(--fill-0, #DB9E18)"/>
</g>
<defs>
<clipPath id="clip0_0_6">
<rect width="10.9737" height="21.8234" fill="white"/>
</clipPath>
</defs>
</svg>
