<svg preserveAspectRatio="none" width="100%" height="100%" overflow="visible" style="display: block;" viewBox="0 0 10.9737 21.8234" fill="none" xmlns="http://www.w3.org/2000/svg">
<g id="SVG" clip-path="url(#clip0_0_38)">
<path id="Vector" d="M0.780444 7.30689C1.0095 8.82731 2.58174 9.84857 2.58174 9.84857C2.58174 9.84857 3.78327 8.40481 3.55512 6.88413C3.32555 5.36192 1.75266 4.34179 1.75266 4.34179C1.75266 4.34179 0.552288 5.78622 0.780444 7.30689ZM0.791752 12.6348C1.80119 13.7972 3.68285 13.8275 3.68285 13.8275C3.68285 13.8275 3.92825 11.973 2.91881 10.8106C1.90937 9.64825 0.026557 9.61726 0.026557 9.61726C0.026557 9.61726 -0.218582 11.4727 0.791752 12.6348ZM2.88047 17.1409C4.32668 17.6854 6.00138 16.8246 6.00138 16.8246C6.00138 16.8246 5.33024 15.0803 3.88402 14.5359C2.4378 13.9913 0.763098 14.8521 0.763098 14.8521C0.763098 14.8521 1.43424 16.5965 2.88047 17.1409ZM7.22009 20.0483C8.74966 20.2839 10.2109 19.0989 10.2109 19.0989C10.2109 19.0989 9.19139 17.5318 7.66151 17.2952C6.1319 17.0596 4.67179 18.2452 4.67179 18.2452C4.67179 18.2452 5.69049 19.8126 7.22009 20.0483ZM3.91978 2.88773C3.1236 4.21045 3.67959 5.99357 3.67959 5.99357C3.67959 5.99357 5.5289 5.63329 6.32507 4.31057C7.12124 2.98784 6.565 1.20383 6.565 1.20383C6.565 1.20383 4.71594 1.565 3.91978 2.88773Z" fill="var(--fill-0, #DB9E18)"/>
</g>
<defs>
<clipPath id="clip0_0_38">
<rect width="10.9737" height="21.8234" fill="white"/>
</clipPath>
</defs>
</svg>
