<svg preserveAspectRatio="none" width="100%" height="100%" overflow="visible" style="display: block;" viewBox="0 0 625 23.0349" fill="none" xmlns="http://www.w3.org/2000/svg">
<g id="Group 74879">
<path id="Vector" d="M46.4427 7.78196C46.4427 5.42181 46.4841 3.22442 46.6081 1.1898L40.2807 2.36988V2.93957L40.901 3.02096C41.3559 3.06165 41.6454 3.22442 41.8108 3.46857C41.9763 3.75342 42.1003 4.16034 42.183 4.77073C42.2658 5.95081 42.3485 8.6365 42.3071 12.8685C42.3071 17.0598 42.2658 19.7048 42.183 20.7221C44.4576 21.2104 46.2359 21.4139 47.5593 21.4139C50.0407 21.4139 51.9844 20.7221 53.3905 19.2979C54.7966 17.9144 55.541 15.9611 55.541 13.5603C55.541 11.6477 55.0034 10.0607 53.9281 8.79927C52.8529 7.53781 51.4881 6.92742 49.8752 6.92742C48.8 6.92742 47.6834 7.21227 46.4427 7.78196ZM46.5668 20.3152C46.4841 19.0131 46.4013 15.1066 46.4013 8.71789C46.7735 8.59581 47.2698 8.51443 47.8902 8.51443C48.8827 8.51443 49.6685 9.00274 50.2474 10.02C50.8264 11.0374 51.1159 12.2581 51.1159 13.8044C51.1159 15.717 50.7851 17.2633 50.1234 18.5654C49.4617 19.8269 48.6346 20.478 47.6007 20.478C47.2698 20.3966 46.939 20.3559 46.5668 20.3152ZM16.5424 1.59672H0V2.41057L0.868474 2.49196C1.53017 2.61403 1.98508 2.85819 2.27458 3.22442C2.56407 3.63134 2.72949 4.28242 2.77085 5.17765C3.10169 9.57243 3.10169 13.6824 2.77085 17.4667C2.68813 18.362 2.52271 19.0131 2.27458 19.42C1.98508 19.8269 1.53017 20.0711 0.868474 20.1524L0 20.2745V21.0884H10.6698V20.2745L9.55322 20.1931C9.00318 20.1484 8.49451 19.8839 8.14712 19.4607C7.85763 19.0538 7.6922 18.4027 7.65085 17.5074C7.52678 15.8797 7.44407 14.0079 7.44407 11.9326L9.67728 11.9733C10.8766 12.014 11.7037 12.9092 12.1173 14.6997H12.9444V8.06681H12.1173C11.7037 9.81658 10.918 10.7118 9.67728 10.7525L7.44407 10.7932C7.44407 7.13089 7.52678 4.52657 7.65085 2.93957H10.918C13.2339 2.93957 14.8054 4.4045 15.7153 7.33435L16.7078 7.0495L16.5424 1.59672ZM14.5986 14.13C14.5986 16.246 15.219 17.9957 16.4183 19.3793C17.6176 20.7628 19.3959 21.4139 21.6291 21.4139C23.8624 21.4139 25.682 20.7221 27.0054 19.2979C28.3288 17.9144 28.9491 16.1646 28.9491 14.0486C28.9491 11.9326 28.3288 10.1828 27.1295 8.79927C25.9302 7.41573 24.1519 6.76465 21.9186 6.76465C19.6854 6.76465 17.8658 7.45642 16.5424 8.88066C15.219 10.2642 14.5986 12.014 14.5986 14.13ZM23.821 9.49104C24.3173 10.6711 24.5241 12.2174 24.5241 14.0893C24.5241 18.4027 23.6142 20.5187 21.8359 20.5187C20.9261 20.5187 20.223 19.9083 19.7268 18.6875C19.2305 17.4667 19.0237 15.9204 19.0237 14.0893C19.0237 9.81658 19.9336 7.70058 21.7119 7.70058C22.6217 7.65989 23.3247 8.27027 23.821 9.49104ZM58.7668 19.3793C60.1315 20.7221 61.8685 21.4139 63.9363 21.4139C65.2183 21.4139 66.3349 21.1698 67.3274 20.6408C68.32 20.1524 69.1057 19.5421 69.6434 18.8096L69.2298 18.3213C68.32 19.0131 67.2861 19.3386 66.0868 19.3386C64.4325 19.3386 63.1505 18.8096 62.282 17.7109C61.3722 16.6122 60.9586 15.2287 61.0413 13.4382H69.8915C69.8915 11.485 69.3952 9.89797 68.3613 8.6365C67.3274 7.41573 65.88 6.80535 64.019 6.80535C61.703 6.80535 59.9247 7.53781 58.6427 8.96204C57.3607 10.3863 56.7403 12.136 56.7403 14.2114C56.7403 16.2867 57.402 18.0364 58.7668 19.3793ZM61.8271 9.1655C62.282 8.18889 62.861 7.70058 63.6468 7.70058C64.8874 7.70058 65.5078 9.24689 65.5078 12.3802L61.1241 12.4616C61.1654 11.2408 61.3722 10.1421 61.8271 9.1655ZM81.0162 7.53781C79.8996 7.0495 78.4935 6.76465 76.7979 6.76465C75.1024 6.76465 73.6963 7.21227 72.6624 8.06681C71.6285 8.92135 71.0908 9.97935 71.0908 11.2408C71.0908 12.3395 71.4217 13.194 72.042 13.8044C72.6624 14.4148 73.6549 14.9438 74.9369 15.3914C76.0949 15.7984 76.922 16.2053 77.3356 16.5715C77.7491 16.9784 77.9973 17.4261 77.9973 18.0364C77.9973 18.6061 77.7905 19.1351 77.3356 19.5421C76.922 19.9897 76.343 20.1931 75.5986 20.1931C73.779 20.1931 72.4142 18.891 71.463 16.2867L70.76 16.4901L70.9254 20.5594C72.4142 21.1291 74.0685 21.4139 75.8881 21.4139C77.7078 21.4139 79.2379 21.007 80.3132 20.1524C81.3884 19.3386 81.9261 18.1585 81.9261 16.6936C81.9261 15.717 81.6779 14.9031 81.1403 14.2927C80.6027 13.6824 79.7342 13.1534 78.4935 12.665C77.1288 12.1767 76.1776 11.7291 75.6813 11.3222C75.1851 10.9153 74.9369 10.427 74.9369 9.81658C74.9369 9.2062 75.1024 8.71789 75.4746 8.31096C75.8468 7.90404 76.3017 7.74127 76.8807 7.74127C78.5349 7.74127 79.7342 8.92135 80.4786 11.2408L81.1817 11.0374L81.0162 7.53781ZM41.2318 7.17158C40.6529 6.88673 40.0325 6.76465 39.3295 6.76465C38.6264 6.76465 37.9234 7.0495 37.1376 7.61919C36.3519 8.18889 35.7729 8.96204 35.318 10.02L35.3593 6.76465L29.0732 7.98543V8.55512L29.6936 8.59581C30.4793 8.6772 30.9342 9.28758 31.0169 10.3863C31.2651 12.9092 31.2651 15.5949 31.0169 18.4434C30.9342 19.5421 30.4793 20.1118 29.6936 20.2338L29.0732 20.3152V21.0884H37.8407V20.3152L36.7241 20.2338C35.9383 20.1524 35.4834 19.5421 35.4007 18.4434C35.1525 16.0832 35.1112 13.5603 35.318 10.956C35.5661 10.549 36.1037 10.3049 36.9308 10.2235C37.758 10.1421 38.7091 10.3863 39.7017 10.956L41.2318 7.17158Z" fill="var(--fill-0, #204C3E)"/>
<path id="Vector_2" d="M526.27 20.196C524.906 18.9046 523.197 18.0799 521.269 18.1966L524.906 14.2057C527.52 14.7891 525.931 18.6712 526.27 20.196ZM544.125 20.5461L541.053 18.7801C540.827 15.7227 541.053 11.4983 541.166 8.55762L544.351 10.4403L544.125 20.5461ZM527.633 10.4403C526.608 11.7317 525.584 12.6731 524.334 13.9645C523.769 13.9645 523.423 13.2565 522.858 12.9065L522.971 8.20754C524.447 9.03218 525.81 10.2069 527.633 10.4403ZM534.689 7.38289L534.576 3.74202C532.987 5.03344 531.504 7.1495 529.802 8.44093C527.866 8.20754 526.164 7.1495 524.568 6.09147C523.204 7.38289 521.721 8.44093 520.019 9.26557C520.132 11.0316 519.793 12.4397 519.906 14.1979L522.293 16.1972C521.043 17.9632 518.543 19.3713 518.769 21.6041C518.769 22.1954 518.769 23.0122 519.334 23.0122C518.995 22.3121 518.769 20.7795 520.011 20.4294C521.834 19.9626 523.197 21.1373 524.56 22.1954C526.036 21.0206 527.52 19.8459 529.109 19.0213L529.222 13.8556L526.947 12.0974C528.198 10.9226 529.222 9.86461 530.472 8.57318C530.811 8.57318 531.383 8.33979 531.609 8.68988L531.496 18.2044L530.931 19.6125C532.068 20.4372 533.431 21.7286 534.682 22.3121L537.641 19.6125C539.117 20.5539 540.714 21.6119 542.303 22.5454C543.892 21.0206 545.376 19.8459 547.191 19.0213C546.965 16.205 546.965 11.7395 547.191 9.03218C545.827 8.09084 544.344 7.2662 542.868 6.56603C541.392 7.97415 539.795 9.03218 538.093 9.85683L537.98 18.6634C537.295 19.0135 537.182 19.9548 536.278 20.1882C535.48 20.0715 534.802 19.3636 534.343 18.6634C534.456 15.3726 534.343 11.3816 534.682 8.20754C535.48 8.32423 536.73 8.32423 537.641 8.20754C537.641 7.97415 537.754 7.61628 537.528 7.49959L534.682 7.38289H534.689ZM500.228 11.3816L500.115 19.138C501.026 20.4294 502.05 19.2546 503.074 18.9046L503.187 13.2643C502.389 12.4397 501.365 11.7395 500.228 11.3816ZM581.087 13.2643C581.998 15.0225 582.224 17.6131 581.087 19.3713C579.95 20.5461 578.248 21.0129 576.539 20.8962L576.313 10.6737C578.248 9.84905 580.184 11.4983 581.087 13.2565V13.2643ZM571.418 16.664C571.192 17.2475 571.192 17.9554 570.619 18.3055C568.571 16.3062 568.006 13.2565 568.345 10.6659C568.571 9.0244 569.595 6.90834 571.305 5.8503L571.418 16.6562V16.664ZM580.289 6.44934C579.265 7.85745 577.563 9.03218 576.426 10.0902L576.313 4.44996C577.789 4.91674 579.159 5.62469 580.297 6.44934H580.289ZM575.74 20.7795C573.918 20.6628 572.329 19.7214 570.966 18.6634C572.442 17.8388 573.692 16.664 574.151 15.0225V3.98318C574.498 3.39193 575.288 3.98318 575.748 4.09988V20.7795H575.74ZM576.99 1.15917C573.579 4.09988 569.829 5.97478 566.53 9.14888C564.933 11.7317 564.933 14.5557 566.078 17.372C567.667 21.1295 571.651 23.1289 575.635 23.0122C577.796 22.3121 579.845 21.254 581.66 19.488C582.684 18.0799 585.184 16.7885 584.506 14.3146C584.619 11.3816 582.119 9.0244 579.732 8.09084C581.095 6.55825 583.256 4.68335 584.619 3.27524L584.28 2.92515L583.03 4.09988C580.982 3.27524 578.933 2.45837 576.998 1.15917H576.99ZM610.654 10.6737L610.541 20.5461C609.404 20.6628 608.492 19.3713 607.355 18.9046V10.4481C607.694 9.9813 608.266 9.50674 608.831 9.27335C609.629 9.27335 610.307 10.098 610.654 10.6815V10.6737ZM605.194 3.15854C604.508 3.04185 603.944 2.2172 603.145 2.45059C603.831 3.03407 604.283 3.9754 604.395 4.80005V18.3133L603.944 19.9548L608.718 22.8955C610.081 21.254 612.017 20.196 613.606 19.138C613.38 16.5551 613.493 12.5564 613.606 9.97352C613.154 8.6821 611.904 7.2662 610.646 7.04059L607.348 9.74013C607.009 9.03218 607.461 7.97415 607.348 7.04059C607.461 5.27461 606.549 2.22498 608.824 1.40034C607.461 1.16695 606.097 1.99159 605.186 3.16632L605.194 3.15854ZM598.597 20.8962C597.347 20.4294 596.435 19.6047 595.298 19.0135C595.298 15.8472 595.185 11.8484 595.411 9.0244L598.597 10.7826V20.8884V20.8962ZM587.797 3.04185C587.12 2.92515 586.547 2.2172 585.975 2.2172C586.088 2.68398 586.547 3.15854 586.653 3.74202L586.766 19.1302L586.08 20.5383C587.104 21.3629 588.129 22.1876 589.266 22.8877L592.105 20.3049C593.694 20.8962 595.17 22.1876 596.88 23.0044C598.243 21.5963 599.839 20.1882 601.654 19.4803C601.428 16.4229 601.428 12.4319 601.654 9.37449L597.219 6.90833C595.742 8.54984 594.033 9.60788 592.21 10.4325L592.436 19.7137C591.864 20.0637 591.299 20.5383 590.734 20.655C588.912 20.4216 589.484 18.5389 589.371 17.5976C589.484 13.2488 589.484 9.60788 589.484 5.37574C589.597 3.73424 589.258 2.43503 590.734 1.38478C589.71 1.38478 588.46 1.96825 587.775 3.02629L587.797 3.04185ZM621.912 12.0896L618.84 14.3223C618.953 12.323 618.84 10.7982 618.953 9.03218C619.977 9.74013 621.227 11.0316 621.912 12.0896ZM624.759 10.6737L620.896 6.79942C619.194 7.97415 617.71 9.49896 615.895 10.3236L616.008 12.0896C615.782 14.3223 616.347 17.6131 615.556 19.7214C617.032 21.0129 618.855 21.9542 620.564 22.8955C622.04 21.3707 623.75 20.0793 625 18.5467C624.887 18.43 625 18.1966 624.774 18.3133L622.387 20.196C621.137 20.5461 620 19.488 618.975 18.6712L618.862 15.147L624.774 10.6815L624.759 10.6737ZM479.412 11.4983L476.227 13.9645L476.452 8.55762C477.364 9.38227 478.501 10.557 479.412 11.4906V11.4983ZM449.733 17.1386L449.394 17.6054C447.232 15.0225 446.547 10.9071 447.805 8.09084L450.079 6.32486C450.305 10.3158 450.418 13.2565 449.74 17.1308L449.733 17.1386ZM454.846 20.0715C453.709 20.0715 452.233 19.488 451.096 18.8968C450.757 18.43 450.185 18.43 449.733 17.9554C454.967 14.7813 452.233 9.38227 453.144 4.55888L454.733 4.79227L454.846 20.0637V20.0715ZM462.58 1.86712L461.556 0.69239C461.217 5.98256 461.217 12.323 461.217 18.43L460.991 18.7801C459.289 19.8381 457.128 20.8962 455.306 20.0715C455.532 14.898 455.193 10.4403 455.419 4.91674C456.443 5.03344 457.693 5.03344 458.717 4.80005L460.991 0.69239L460.766 0.575695C460.427 0.459 460.427 1.16695 460.201 1.40034C458.612 3.15854 455.765 1.99159 453.83 1.99159C450.87 1.8749 447.232 0.350085 445.297 3.64088C445.071 4.69891 444.845 6.22373 445.982 7.04837C445.869 6.45712 445.297 6.10703 445.53 5.39908C445.643 4.80783 446.103 4.10766 446.668 4.22435C448.377 3.99096 450.877 4.22435 452.466 4.69113C450.079 6.09925 447.458 7.39067 445.305 9.27335C443.941 11.8562 443.941 14.3223 445.079 17.0297C446.901 20.9039 450.99 22.6699 455.2 22.5532L460.434 19.737L462.934 21.8531C463.959 22.6777 464.87 20.795 465.548 20.2115L464.185 18.8034L464.298 9.98908C464.983 9.28113 465.661 8.58096 466.572 8.58096C467.144 8.69766 467.709 9.28891 467.709 9.87238V20.2115L468.394 21.503C470.33 23.7357 471.693 19.9782 473.515 19.8615L477.612 22.561C479.088 21.1529 480.911 19.6281 482.161 18.3367C481.363 18.1033 480.911 19.278 480.225 19.7448C479.314 20.2115 478.749 20.0949 477.951 19.5114C475.564 19.0368 476.242 16.5707 476.242 14.8125L482.153 10.4636C480.903 9.05552 479.54 7.7641 478.17 6.58937C476.693 7.88079 475.097 9.17222 473.395 9.99686V19.0368L473.056 19.3947C472.371 20.0949 471.354 20.8028 470.669 19.6281C470.556 16.8118 470.443 12.2296 470.669 9.5223L470.443 8.58096C469.87 7.63962 468.967 6.58159 467.83 6.4649C466.579 7.28954 465.442 8.46427 464.305 9.16444C464.531 6.10703 463.394 2.11607 465.555 0C464.192 0 463.168 0.707949 462.596 1.88268L462.58 1.86712ZM514.672 20.196L511.599 18.4378C511.373 15.147 511.486 11.156 511.712 8.21532L514.898 9.9813L514.672 20.2038V20.196ZM513.648 6.09147C512.059 7.62406 510.01 8.67432 508.534 9.73235C508.647 12.5486 508.647 15.3726 508.421 18.3055L507.969 19.1302C509.445 20.1882 511.155 21.2462 512.744 22.1876C514.446 20.7717 516.043 19.6047 517.865 18.6634C517.752 15.606 517.639 11.3816 518.091 8.55762L513.655 6.09147H513.648ZM551.4 6.91612C550.723 6.44934 550.037 7.74076 549.239 8.09084C548.554 8.79879 549.811 9.26557 550.037 9.97352L549.811 18.7879C549.698 19.3791 549.239 19.8459 549.126 20.196L551.965 22.5454L553.901 20.7872C553.901 20.0793 552.763 19.7292 552.537 19.0213L552.876 10.0902C553.449 9.74013 554.014 8.91549 554.925 8.91549C555.497 9.03218 556.175 9.74013 556.288 10.3236C556.401 13.1398 556.288 17.0219 556.062 20.1882C556.401 21.3629 557.312 22.1876 558.223 22.6544C559.473 21.8297 560.724 20.655 561.635 19.7214C561.409 19.6047 561.07 19.9548 560.837 20.1882C560.385 21.0129 559.586 20.5383 559.127 20.0715C558.675 17.2553 559.24 13.2565 559.127 10.4403C559.466 9.49896 558.788 8.55762 558.103 7.85745C556.393 5.04122 554.691 9.03218 552.982 9.50674C552.53 8.6821 552.191 7.62406 551.393 6.92389L551.4 6.91612ZM500.567 2.45059C496.583 4.33327 498.744 9.84904 497.84 12.7898C497.155 14.4313 495.34 15.7227 493.977 16.5473C496.025 16.7807 497.727 17.7221 499.437 18.6634L499.889 6.09147C499.889 5.85808 500.228 5.74139 500.341 5.97478V11.0316C501.478 10.4403 502.615 9.74013 503.526 8.6821C503.639 6.21595 501.704 4.44996 500.567 2.45837V2.45059ZM488.969 1.98381C488.058 3.39193 488.171 4.80005 488.969 6.21595H489.082C489.082 5.98256 488.969 5.86586 488.969 5.74917C488.517 5.04122 488.856 4.10766 489.195 3.51641C491.017 2.69176 493.171 3.28302 494.768 3.6331C492.719 5.04122 490.784 7.15729 491.13 9.85683H488.969C488.397 10.2069 487.606 10.5648 487.493 11.3816C487.38 11.9651 487.267 12.7898 487.832 13.1476C487.606 12.5564 487.719 12.0896 487.945 11.5061C488.397 11.156 489.082 11.2727 489.647 11.156C490.897 11.3894 491.582 12.3308 491.123 13.5055C491.236 14.6802 490.324 15.6216 489.647 16.205L491.01 15.7382C494.881 14.2134 493.058 9.8646 493.736 6.45712C494.075 3.99096 496.462 2.22498 498.398 1.40812C494.986 1.52481 491.913 -0.591254 488.961 1.99937L488.969 1.98381ZM506.478 6.91612C505.68 8.09084 504.317 8.55762 503.293 9.61566C504.317 10.557 505.567 11.1405 506.591 11.9651C506.026 13.9645 506.252 16.4306 506.139 18.3055C503.752 19.1302 501.139 19.8381 499.429 21.9464C496.244 20.3049 492.606 17.5976 489.082 19.7137C488.284 20.4216 488.171 22.0631 488.743 23.0044C488.171 23.2378 488.065 22.0631 487.945 21.5963C487.606 20.4216 488.517 19.3636 489.082 18.3055C490.784 15.7227 494.768 17.7221 495.22 13.84C495.445 11.3739 494.881 8.43315 495.784 6.08369C497.607 3.26746 500.333 2.20942 502.833 0.210051C504.083 2.32612 505.793 4.44218 506.471 6.90833L506.478 6.91612Z" fill="var(--fill-0, #204C3E)"/>
</g>
</svg>
