<svg viewBox="0 0 250 39" version="1.1" xmlns="http://www.w3.org/2000/svg" id="Layer_1">
  
  <defs>
    <style>
      .st0 {
        fill: #204c3e;
      }
    </style>
  </defs>
  <path d="M113.92,30.66c-1.81-1.66-4.08-2.72-6.64-2.57l4.83-5.13c3.47.75,1.36,5.74,1.81,7.7M137.63,31.11l-4.08-2.27c-.3-3.93,0-9.36.15-13.14l4.23,2.42-.3,12.99ZM115.73,18.12c-1.36,1.66-2.72,2.87-4.38,4.53-.75,0-1.21-.91-1.96-1.36l.15-6.04c1.96,1.06,3.77,2.57,6.19,2.87ZM125.1,14.19l-.15-4.68c-2.11,1.66-4.08,4.38-6.34,6.04-2.57-.3-4.83-1.66-6.95-3.02-1.81,1.66-3.78,3.02-6.04,4.08.15,2.27-.3,4.08-.15,6.34l3.17,2.57c-1.66,2.27-4.98,4.08-4.68,6.95,0,.76,0,1.81.75,1.81-.45-.9-.75-2.87.9-3.32,2.42-.6,4.23.91,6.04,2.27,1.96-1.51,3.93-3.02,6.04-4.08l.15-6.64-3.02-2.26c1.66-1.51,3.02-2.87,4.68-4.53.45,0,1.21-.3,1.51.15l-.15,12.23-.75,1.81c1.51,1.06,3.32,2.72,4.98,3.47l3.93-3.47c1.96,1.21,4.08,2.57,6.19,3.77,2.11-1.96,4.08-3.47,6.49-4.53-.3-3.62-.3-9.36,0-12.84-1.81-1.21-3.78-2.27-5.74-3.17-1.96,1.81-4.08,3.17-6.34,4.23l-.15,11.32c-.91.45-1.06,1.66-2.26,1.96-1.06-.15-1.96-1.06-2.57-1.96.15-4.23,0-9.36.45-13.44,1.06.15,2.72.15,3.93,0,0-.3.15-.76-.15-.91l-3.78-.15ZM79.34,19.33l-.15,9.97c1.21,1.66,2.57.15,3.93-.3l.15-7.25c-1.06-1.06-2.42-1.96-3.93-2.42ZM186.71,21.75c1.21,2.26,1.51,5.59,0,7.85-1.51,1.51-3.77,2.11-6.04,1.96l-.3-13.14c2.57-1.06,5.14,1.06,6.34,3.32ZM173.87,26.12c-.3.75-.3,1.66-1.06,2.11-2.72-2.57-3.47-6.49-3.02-9.82.3-2.11,1.66-4.83,3.93-6.19l.15,13.89ZM185.65,12.99c-1.36,1.81-3.62,3.32-5.13,4.68l-.15-7.25c1.96.6,3.78,1.51,5.29,2.57ZM179.61,31.41c-2.42-.15-4.53-1.36-6.34-2.72,1.96-1.06,3.62-2.57,4.23-4.68v-14.19c.46-.76,1.51,0,2.12.15v21.44h0ZM181.27,6.19c-4.53,3.78-9.51,6.19-13.89,10.27-2.12,3.32-2.12,6.95-.6,10.57,2.11,4.83,7.4,7.4,12.69,7.25,2.87-.9,5.59-2.26,8-4.53,1.36-1.81,4.68-3.47,3.78-6.65.15-3.77-3.17-6.8-6.34-8,1.81-1.97,4.68-4.38,6.49-6.19l-.45-.45-1.66,1.51c-2.72-1.06-5.44-2.11-8.01-3.78ZM225.97,18.42l-.15,12.69c-1.51.15-2.72-1.51-4.23-2.11v-10.87c.45-.6,1.21-1.21,1.96-1.51,1.06,0,1.96,1.06,2.42,1.81ZM218.72,8.76c-.91-.15-1.66-1.21-2.72-.91.91.75,1.51,1.96,1.66,3.02v17.37l-.6,2.11,6.34,3.78c1.81-2.11,4.38-3.47,6.49-4.83-.3-3.32-.15-8.46,0-11.78-.6-1.66-2.26-3.48-3.93-3.77l-4.38,3.47c-.45-.91.15-2.27,0-3.47.15-2.27-1.06-6.19,1.96-7.25-1.81-.3-3.62.76-4.83,2.27ZM209.96,31.56c-1.66-.6-2.87-1.66-4.38-2.42,0-4.07-.15-9.21.15-12.84l4.23,2.26v12.99h0ZM195.62,8.61c-.9-.15-1.66-1.06-2.42-1.06.15.6.76,1.21.9,1.96l.15,19.78-.91,1.81c1.36,1.06,2.72,2.12,4.23,3.02l3.77-3.32c2.11.76,4.07,2.42,6.34,3.47,1.81-1.81,3.93-3.62,6.34-4.53-.3-3.93-.3-9.06,0-12.99l-5.89-3.17c-1.96,2.11-4.23,3.47-6.65,4.53l.3,11.93c-.76.45-1.51,1.06-2.26,1.21-2.42-.3-1.66-2.72-1.81-3.93.15-5.59.15-10.27.15-15.71.15-2.11-.3-3.78,1.66-5.13-1.36,0-3.02.75-3.93,2.11ZM240.92,20.24l-4.08,2.87c.15-2.57,0-4.53.15-6.8,1.36.91,3.02,2.57,3.93,3.93ZM244.7,18.42l-5.13-4.98c-2.26,1.51-4.23,3.47-6.64,4.53l.15,2.27c-.3,2.87.45,7.1-.6,9.81,1.96,1.66,4.38,2.87,6.65,4.08,1.96-1.96,4.23-3.62,5.89-5.59-.15-.15,0-.45-.3-.3l-3.17,2.42c-1.66.45-3.17-.91-4.53-1.96l-.15-4.53,7.85-5.74ZM51.7,19.48l-4.23,3.17.3-6.95c1.21,1.06,2.72,2.57,3.93,3.77ZM12.29,26.73l-.45.6c-2.87-3.32-3.78-8.61-2.11-12.23l3.02-2.27c.3,5.13.45,8.91-.45,13.89ZM19.08,30.5c-1.51,0-3.47-.75-4.98-1.51-.45-.6-1.21-.6-1.81-1.21,6.95-4.08,3.32-11.02,4.53-17.22l2.11.3.15,19.63ZM29.35,7.1l-1.36-1.51c-.45,6.8-.45,14.95-.45,22.8l-.3.45c-2.26,1.36-5.13,2.72-7.55,1.66.3-6.65-.15-12.38.15-19.48,1.36.15,3.02.15,4.38-.15l3.02-5.28-.3-.15c-.45-.15-.45.76-.75,1.06-2.11,2.26-5.89.76-8.46.76-3.93-.15-8.76-2.11-11.33,2.12-.3,1.36-.6,3.32.91,4.38-.15-.76-.91-1.21-.6-2.12.15-.76.76-1.66,1.51-1.51,2.27-.3,5.59,0,7.7.6-3.17,1.81-6.65,3.47-9.51,5.89-1.81,3.32-1.81,6.49-.3,9.97,2.42,4.98,7.85,7.25,13.44,7.1l6.95-3.62,3.32,2.72c1.36,1.06,2.57-1.36,3.47-2.11l-1.81-1.81.15-11.33c.91-.91,1.81-1.81,3.02-1.81.76.15,1.51.91,1.51,1.66v13.29l.91,1.66c2.57,2.87,4.38-1.96,6.8-2.11l5.44,3.47c1.96-1.81,4.38-3.77,6.04-5.43-1.06-.3-1.66,1.21-2.57,1.81-1.21.6-1.96.45-3.02-.3-3.17-.61-2.27-3.78-2.27-6.04l7.85-5.59c-1.66-1.81-3.47-3.47-5.29-4.98-1.96,1.66-4.08,3.32-6.34,4.38v11.62l-.45.46c-.91.9-2.26,1.81-3.17.3-.15-3.62-.3-9.51,0-12.99l-.3-1.21c-.76-1.21-1.96-2.57-3.47-2.72-1.66,1.06-3.17,2.57-4.68,3.47.3-3.93-1.21-9.06,1.66-11.78-1.81,0-3.17.91-3.93,2.42ZM98.52,30.66l-4.08-2.26c-.3-4.23-.15-9.36.15-13.14l4.23,2.27-.3,13.14ZM97.16,12.53c-2.11,1.97-4.83,3.32-6.79,4.68.15,3.62.15,7.25-.15,11.02l-.6,1.06c1.96,1.36,4.23,2.72,6.34,3.93,2.26-1.82,4.38-3.32,6.8-4.53-.15-3.93-.3-9.36.3-12.99l-5.89-3.17ZM147.29,13.59c-.9-.6-1.81,1.06-2.87,1.51-.91.91.76,1.51,1.06,2.42l-.3,11.33c-.15.76-.76,1.36-.91,1.81l3.77,3.02,2.57-2.26c0-.91-1.51-1.36-1.81-2.27l.45-11.48c.76-.45,1.51-1.51,2.72-1.51.76.15,1.66,1.06,1.81,1.81.15,3.62,0,8.61-.3,12.68.45,1.51,1.66,2.57,2.87,3.17,1.66-1.06,3.32-2.57,4.53-3.77-.3-.15-.75.3-1.06.6-.6,1.06-1.66.45-2.27-.15-.6-3.62.15-8.76,0-12.38.45-1.21-.45-2.42-1.36-3.32-2.27-3.62-4.53,1.51-6.8,2.12-.6-1.06-1.05-2.42-2.11-3.32ZM79.79,7.85c-5.29,2.42-2.42,9.51-3.62,13.29-.91,2.11-3.32,3.77-5.13,4.83,2.72.3,4.98,1.51,7.25,2.72l.6-16.16c0-.3.45-.45.6-.15v6.5c1.51-.76,3.02-1.66,4.23-3.02.15-3.17-2.42-5.44-3.93-8ZM64.39,7.25c-1.21,1.81-1.06,3.62,0,5.44h.15c0-.3-.15-.45-.15-.6-.6-.91-.15-2.11.3-2.87,2.42-1.06,5.28-.3,7.4.15-2.72,1.81-5.29,4.53-4.83,8h-2.87c-.76.45-1.81.91-1.96,1.96-.15.75-.3,1.81.45,2.27-.3-.76-.15-1.36.15-2.11.6-.45,1.51-.3,2.26-.45,1.66.3,2.57,1.51,1.96,3.02.15,1.51-1.06,2.72-1.96,3.47l1.81-.6c5.14-1.96,2.72-7.55,3.62-11.93.45-3.17,3.62-5.44,6.19-6.49-4.53.15-8.61-2.57-12.53.76ZM87.64,13.59c-1.06,1.51-2.87,2.11-4.23,3.47,1.36,1.21,3.02,1.96,4.38,3.02-.75,2.57-.45,5.74-.6,8.15-3.17,1.06-6.64,1.97-8.91,4.68-4.23-2.11-9.06-5.59-13.74-2.87-1.06.91-1.21,3.02-.45,4.23-.76.3-.9-1.21-1.06-1.81-.45-1.51.76-2.87,1.51-4.23,2.26-3.32,7.55-.75,8.15-5.74.3-3.17-.45-6.95.75-9.97,2.42-3.62,6.04-4.98,9.36-7.55,1.66,2.72,3.93,5.44,4.83,8.61Z" class="st0"></path>
</svg>