<svg xmlns="http://www.w3.org/2000/svg" fill="none" viewBox="0 0 250 30" height="30" width="250">
<g clip-path="url(#clip0_5090_147)">
<path fill="#9AACA0" d="M2.1 1.04993H0.5V28.9499H2.1V1.04993Z"></path>
<path fill="#9AACA0" d="M5.40078 1.05005H3.80078V28.9501H5.40078V1.05005Z"></path>
<path fill="#9AACA0" d="M25.1 1.05005H23.5V28.9501H25.1V1.05005Z"></path>
<path fill="#9AACA0" d="M28.3998 1.05005H26.7998V28.9501H28.3998V1.05005Z"></path>
<path fill="#9AACA0" d="M20.1998 12.55H8.6498V1.05005H7.0498V14.15H21.7998V1.05005H20.1998V12.55Z"></path>
<path fill="#9AACA0" d="M18.4996 10.85V1.05005H16.9496V9.30005H11.9496V1.05005H10.3496V10.85H18.4996Z"></path>
<path fill="#9AACA0" d="M7.0498 15.8501V28.9501H8.6498V17.4501H20.1998V28.9501H21.7998V15.8501H7.0498Z"></path>
<path fill="#9AACA0" d="M10.3496 19.1504V28.9504H11.9496V20.7004H16.9496V28.9504H18.4996V19.1504H10.3496Z"></path>
<path fill="#204C3E" d="M91.25 28.7001C91.25 28.7001 91.5 20.3001 105.8 24.0501C105.8 24.0501 103.7 25.9001 102.8 28.5001C102.8 28.5001 97 24.4501 91.25 28.7001Z"></path>
<path fill="#204C3E" d="M89.6012 5.50015C89.6012 5.50015 89.2012 -0.149847 95.9512 1.40015C95.9512 1.40015 99.5012 2.40015 100.601 1.50015C100.601 1.50015 101.101 3.05015 99.5512 4.50015C99.5512 4.50015 97.7012 6.55015 94.3012 5.45015C94.3012 5.45015 91.3012 4.35015 89.6512 5.45015"></path>
<path fill="#204C3E" d="M109.4 20.6L106.55 13.2C106.05 12 105.2 11.95 105.2 11.95C106.1 6.64995 109.7 6.24995 109.7 6.24995C114.2 5.44995 113.75 1.44995 113.75 1.44995C111.65 3.19995 110.3 1.94995 110.3 1.94995C108.85 1.14995 108.2 2.49995 108.2 2.49995L103.45 11.75C103.2 12.05 103.05 11.8 103.05 11.75C102.4 5.04995 104.55 2.09995 104.55 2.09995C97.4498 2.34995 98.9998 12.9 98.9998 12.9C99.8998 21.15 98.0498 21.7999 98.0498 21.7999C101.8 21.7999 102.9 18.35 103.15 15.6C103.15 15.5 103.25 15.4 103.35 15.6C103.6 16.5 103.8 17.15 103.8 17.15C107.2 27.9 109.4 28.2999 109.4 28.2999C110.3 28.5999 110.9 27.95 110.9 27.95C113.5 25.9 113.85 23.35 113.85 23.35C111.95 26.3 109.35 20.65 109.35 20.65"></path>
<path fill="#204C3E" d="M125.451 13.0501C122.851 12.3501 119.151 10.4001 119.151 10.4001C118.501 12.2001 114.451 13.3501 114.451 13.3501V23.1001C114.451 24.9001 113.201 25.6001 113.201 25.6001C116.851 26.2501 120.101 28.7501 120.101 28.7501C121.851 27.2001 125.451 25.7501 125.451 25.7501V13.0501ZM118.151 23.5501V13.9001C118.151 13.8001 118.251 13.6501 118.501 13.7501L121.901 15.6001V25.2001C121.901 25.4501 121.701 25.4001 121.601 25.3501L118.201 23.5501H118.151Z"></path>
<path fill="#204C3E" d="M137.8 12.8501L136.2 10.9501C135.7 10.3001 135.2 10.7501 135.2 10.7501L132.8 12.6001C132.2 13.0501 131.45 11.7001 131.45 11.7001C130.45 10.4001 129.75 10.5501 129.75 10.5501C129.65 10.5501 129.55 10.5501 129.45 10.6501L126.75 12.9501C126.55 13.1001 126.5 13.4501 126.7 13.6501L126.8 13.8001C126.95 14.0001 127.3 14.0501 127.5 13.8501L127.65 13.7501C127.9 13.6001 128.05 13.7501 128.05 13.7501C128.4 13.9501 128.4 14.9001 128.4 14.9001V24.8001C128.4 24.8001 128.4 24.8001 128.4 24.9001C128.4 25.2001 128.3 26.0501 127.35 26.6501C127.35 26.6501 128.8 27.3001 130.25 28.7501C130.25 28.7501 131.65 27.3501 133.2 26.6501C133.2 26.6501 132.05 25.9501 132 24.2001V15.5501C132.05 14.4501 133 13.9001 133 13.9001C133.45 13.6501 133.7 14.0001 133.7 14.0001L134.65 15.2501C135.25 16.0001 136 15.4501 136 15.4501L137.65 14.2501C138.35 13.6501 137.7 13.0001 137.7 13.0001"></path>
<path fill="#204C3E" d="M160.25 24.4501V13.9501C155.05 12.3001 153.9 10.7001 153.9 10.7001L149.85 14.6501C149.5 14.9501 149.65 15.2001 149.65 15.2001L151.3 17.4001C151.35 17.5001 151.6 17.8501 151.2 18.1001C150.75 18.3001 147.9 19.8501 148.3 24.0001C148.3 24.0001 148.7 28.1501 152.5 28.7001C152.5 28.7001 152.65 28.7001 152.8 28.5501L156.25 25.5001C156.25 25.5001 156.4 25.3001 156.5 25.5001C157.15 28.6501 159.1 28.7501 159.1 28.7501C160.75 28.2501 162.25 26.0001 162.25 26.0001C160.45 26.4001 160.2 24.8501 160.15 24.4001M152.55 16.5001L154.4 14.7001C155.2 14.0501 155.85 14.4501 155.85 14.4501C156.4 14.7501 156.5 15.1501 156.55 15.4501V15.7001V15.8001V22.4501C156.55 23.1001 156.35 23.4001 156.35 23.4001C155.5 25.3001 154.25 25.1001 154.25 25.1001C153.75 25.0501 153.05 24.3001 153.05 24.3001C150.95 22.2501 152.35 20.0501 152.35 20.0501C152.75 19.5501 153.05 19.8001 153.25 19.9501L154 21.0001C154.15 21.2001 154.45 21.2501 154.7 21.1001H154.8C155 20.8501 155.05 20.5501 154.9 20.3501L152.55 17.1501C152.35 16.9001 152.65 16.5501 152.65 16.5501"></path>
<path fill="#204C3E" d="M58.9998 5.95012C59.0498 5.90012 59.0998 5.85012 59.1998 5.85012C59.2998 5.85012 59.3498 5.90012 59.2998 6.05012L59.6498 5.75012L59.3998 5.25012L58.8998 5.55012L58.7998 5.90012L58.9998 6.00012V5.95012Z"></path>
<path fill="#204C3E" d="M71.5998 24.0499V13.8C71.5998 13.8 71.5998 10.85 70.0998 10.35C70.0998 10.35 69.5998 10.2 68.7998 10.6C68.6998 10.6 68.5498 10.75 68.5498 10.75L63.5998 14.95C63.5498 14.95 63.4998 15.05 63.4498 15.05C63.3498 15.05 63.3498 15 63.3498 14.85V5.64995C63.3498 2.89995 61.4998 2.19995 61.4998 2.19995C61.3498 2.19995 61.1498 2.19995 61.0498 2.34995L57.4498 5.99995C57.2498 6.19995 57.2498 6.49995 57.4498 6.69995L57.5998 6.84995C57.7998 7.04995 58.0998 7.04995 58.2998 6.84995L59.3998 5.74995V23.6C59.3498 24.5 59.0498 25.65 58.1498 26C58.1498 26 60.4498 26.95 61.4998 28.85C61.4998 28.85 62.3998 27.5 64.9998 26.2C64.9998 26.2 63.7498 25.85 63.4998 23.45V17.05C63.4998 16.85 63.6498 16.7 63.6998 16.6L67.4998 13.4C67.4998 13.4 67.5498 13.4 67.5998 13.4C67.6998 13.4 67.6998 13.45 67.6998 13.6V23.25C67.6998 25.5499 66.0998 26.15 66.0998 26.15C68.4998 27 69.5998 28.85 69.5998 28.85C70.8998 27.25 73.0498 26.2 73.0498 26.2C72.0498 25.5 71.7998 24.65 71.6998 24.2"></path>
<path fill="#204C3E" d="M80.6498 20.8L86.2998 15.6C86.4498 15.45 86.4998 15.2 86.3998 15.05C86.3998 15 86.3498 14.9 86.2998 14.85L82.0498 10.35C82.0498 10.35 81.9498 10.3 81.9498 10.25C81.8998 10.25 81.8498 10.25 81.7998 10.25C81.7498 10.25 81.6998 10.25 81.6498 10.25C81.6498 10.25 81.6498 10.25 81.5998 10.25L77.0998 13.3C76.9998 13.35 76.9498 13.45 76.9498 13.5C76.8998 13.6 76.8498 13.75 76.8498 13.9V23.05C76.8998 25.55 75.5498 26 75.5498 26C78.3498 26.7 81.3998 28.3 81.3998 28.3C81.5998 28.4 81.8498 28.4 81.9998 28.3L86.2498 24.65C86.4498 24.45 86.4498 24.15 86.2498 23.95L86.1498 23.8C85.9498 23.6 85.6498 23.6 85.4498 23.8L83.8998 25.15C83.6498 25.3 83.3998 25.2 83.2998 25.15H83.1998L81.0498 24.2C80.7498 24.05 80.6498 23.75 80.6498 23.55V21.4C80.6498 21.1 80.8498 20.85 80.9498 20.75M80.6498 19.25C80.3998 19.4 80.3998 19.15 80.3998 19.1V14.65C80.3998 14.65 80.3998 14.55 80.4998 14.5L80.8998 14.25C80.9498 14.25 81.0498 14.25 81.0998 14.25L83.1998 16.5C83.2498 16.6 83.3498 16.75 83.1998 16.85L80.6498 19.2V19.25Z"></path>
<path fill="#204C3E" d="M53.3008 7.15007C60.4008 7.95007 60.3008 2.10007 60.3008 2.10007C56.0508 4.90007 52.7008 3.40007 48.4508 1.90007C44.2008 0.400068 41.6008 0.900068 41.6008 0.900068C35.6008 1.85007 35.3008 7.10007 35.3008 7.10007C38.4008 4.50007 41.7508 4.55007 43.4008 4.70007C43.4008 4.70007 43.6508 4.70007 43.4508 4.90007C32.9008 10.3001 33.8508 28.0001 46.0508 28.6001C57.6008 29.1501 58.1508 19.9001 58.1508 19.9001C56.5008 21.4501 54.9508 22.5501 53.5008 23.3001C53.2508 23.4501 53.1508 23.2501 53.1508 23.1501V7.25007C53.1508 7.25007 53.2008 7.20007 53.2508 7.15007M45.1008 5.35007C45.1008 5.35007 45.2008 5.30007 45.3008 5.40007V18.7501C45.3008 18.8501 45.3008 18.9501 45.3008 19.0001L43.5008 22.1001C43.2508 22.6001 42.9508 22.2001 42.9508 22.2001C41.5008 20.8001 40.8008 19.3001 40.8008 19.3001C38.2008 11.8001 42.7508 7.15007 45.1508 5.30007M44.6008 23.6001C44.4508 23.4501 44.5008 23.2501 44.6008 23.1501L48.7008 18.8501C48.7008 18.8501 48.9508 18.6501 48.9508 18.3501V6.45007C48.9508 6.40007 48.9508 6.35007 49.1008 6.35007C50.4508 6.70007 51.4508 6.90007 52.1508 7.00007C52.1508 7.00007 52.3008 7.00007 52.3008 7.20007V23.6001C52.3008 23.7501 52.2008 24.0501 51.9508 24.1501C48.8508 25.3001 46.4008 24.7001 44.6008 23.6001Z"></path>
<path fill="#204C3E" d="M142.501 20.8L148.101 15.6C148.251 15.45 148.301 15.2 148.201 15.05C148.201 15 148.151 14.9 148.101 14.85L143.851 10.35C143.851 10.35 143.751 10.3 143.751 10.25C143.701 10.25 143.651 10.25 143.601 10.25C143.551 10.25 143.501 10.25 143.451 10.25C143.451 10.25 143.451 10.25 143.401 10.25L138.901 13.3C138.801 13.35 138.751 13.45 138.751 13.5C138.701 13.6 138.651 13.75 138.651 13.9V23.05C138.701 25.55 137.351 26 137.351 26C140.151 26.7 142.901 28.5 142.901 28.5C143.101 28.6 143.351 28.6 143.501 28.5L148.001 24.65C148.201 24.45 148.201 24.15 148.001 23.95L147.851 23.8C147.651 23.6 147.351 23.6 147.151 23.8L145.601 25.1C145.351 25.4 145.001 25.3 144.851 25.25L142.651 24.2C142.351 24.05 142.251 23.75 142.251 23.55V21.4C142.251 21.1 142.451 20.85 142.551 20.75M142.501 19.25C142.201 19.45 142.251 19.1 142.251 19.1V14.7C142.251 14.7 142.251 14.6 142.351 14.55L142.751 14.3C142.801 14.3 142.901 14.3 142.951 14.3L145.051 16.55C145.101 16.65 145.201 16.8 145.051 16.9L142.501 19.25Z"></path>
<path fill="#204C3E" d="M98.2006 6.50016C98.2006 6.50016 94.2506 5.50016 93.6506 11.6502C93.6506 11.6502 89.8506 12.9502 90.5006 16.3502C90.5006 16.3502 93.6506 13.2502 93.9506 18.0002C94.2006 22.7002 92.9006 23.3502 92.9006 23.3502C92.9006 23.3502 96.2506 24.1502 97.5506 19.8002C97.5506 19.8002 98.1006 17.1002 97.7006 13.7502C97.7006 13.7502 97.0006 9.30016 98.2006 6.45016"></path>
<path fill="#204C3E" d="M214.3 12.8501L212.7 10.9501C212.2 10.3001 211.7 10.7501 211.7 10.7501L209.3 12.6001C208.7 13.0501 207.95 11.7001 207.95 11.7001C206.95 10.4001 206.25 10.5501 206.25 10.5501C206.15 10.5501 206.05 10.5501 205.95 10.6501L203.25 12.9501C203.05 13.1001 203 13.4501 203.2 13.6501L203.3 13.8001C203.45 14.0001 203.8 14.0501 204 13.8501L204.15 13.7501C204.4 13.6001 204.55 13.7501 204.55 13.7501C204.9 13.9501 204.9 14.9001 204.9 14.9001V24.8001C204.9 24.8001 204.9 24.8001 204.9 24.9001C204.9 25.2501 204.8 26.0501 203.85 26.6501C203.85 26.6501 205.3 27.3001 206.75 28.7501C206.75 28.7501 208.15 27.3501 209.7 26.6501C209.7 26.6501 208.55 25.9501 208.5 24.2001V15.5501C208.55 14.4501 209.5 13.9001 209.5 13.9001C209.95 13.6501 210.2 14.0001 210.2 14.0001L211.15 15.2501C211.75 16.0001 212.5 15.4501 212.5 15.4501L214.15 14.2501C214.85 13.6501 214.2 13.0001 214.2 13.0001"></path>
<path fill="#204C3E" d="M225.6 24.4501V13.9501C220.4 12.3001 219.25 10.7001 219.25 10.7001L215.2 14.6501C214.85 14.9501 215 15.2001 215 15.2001L216.65 17.4001C216.7 17.5001 216.95 17.8501 216.55 18.1001C216.1 18.3001 213.25 19.8501 213.6 24.0001C213.6 24.0001 214 28.1501 217.8 28.7001C217.8 28.7001 217.95 28.7001 218.1 28.5501L221.55 25.5001C221.55 25.5001 221.7 25.3001 221.8 25.5001C222.45 28.6501 224.4 28.7501 224.4 28.7501C226.05 28.2501 227.55 26.0001 227.55 26.0001C225.75 26.4001 225.5 24.8501 225.45 24.4001M217.85 16.5001L219.7 14.7001C220.5 14.0501 221.15 14.4501 221.15 14.4501C221.7 14.7501 221.8 15.1501 221.85 15.4501V15.7001V15.8001V22.4501C221.85 23.1001 221.65 23.4001 221.65 23.4001C220.8 25.3001 219.55 25.1001 219.55 25.1001C219.05 25.0501 218.35 24.3001 218.35 24.3001C216.25 22.2501 217.65 20.0501 217.65 20.0501C218.05 19.5501 218.35 19.8001 218.55 19.9501L219.3 21.0001C219.45 21.2001 219.75 21.2501 220 21.1001H220.1C220.3 20.8501 220.35 20.5501 220.2 20.3501L217.85 17.1501C217.65 16.9001 217.95 16.5501 217.95 16.5501"></path>
<path fill="#204C3E" d="M171.35 5.45012C174.85 6.70012 176.55 5.00012 176.55 5.00012C178.5 3.40012 178.75 1.50012 178.75 1.50012C176.95 3.45012 174.6 2.40012 174.6 2.40012C171.95 1.35012 170.3 1.55012 170.3 1.55012C165.75 2.00012 166.85 6.95012 166.85 6.95012C167.55 3.80012 171.3 5.40012 171.3 5.40012"></path>
<path fill="#204C3E" d="M188.3 21.7501V8.0501C188.4 6.5001 189.3 6.1501 189.3 6.1501C190.7 5.2501 190.7 4.4501 190.7 4.4501C187.15 4.3001 186.35 1.7001 186.35 1.7001C186.35 1.6001 186.15 1.6001 186.15 1.6001L181.75 4.9501C184.1 5.2001 184.55 6.0501 184.6 6.5501V12.8501H179.85V2.7001C179.85 2.0501 179.45 2.5501 179.45 2.5501C177.75 5.1001 175.4 6.1001 175.4 6.1001C172.55 7.5501 173 11.5501 173 11.5501C173.25 12.2001 172.2 12.4001 172.2 12.4001C172.2 12.4001 167.7 13.3001 170.1 18.4501C170.1 18.4501 172.35 14.5501 173.05 17.4501C173.05 17.4501 174 22.6501 171.35 23.3501C171.35 23.3501 177.3 25.9501 177.3 16.0001V9.0501C177.3 9.0501 177.1 5.5001 178.85 4.8501V24.1001C168.65 23.4001 168.55 27.6501 168.55 27.6501C174.35 26.5501 177 29.0001 177 29.0001C179.15 25.8501 182.3 24.5001 182.3 24.5001C181.4 24.3501 180.6 24.2501 179.8 24.2001V16.3001H184.55V23.2501C184.45 24.0001 184.1 25.1001 183 25.9501C183 25.9501 184.35 26.5501 186.75 29.0501C186.75 29.0501 189.25 26.9001 192.25 25.3001C192.25 25.3001 188.3 25.0001 188.2 21.7001"></path>
<path fill="#204C3E" d="M197.35 20.8L202.95 15.6C203.1 15.45 203.15 15.2 203.05 15.05C203.05 15 203 14.9 202.95 14.85L198.7 10.35C198.7 10.35 198.6 10.3 198.6 10.25C198.55 10.25 198.5 10.25 198.45 10.25C198.4 10.25 198.35 10.25 198.3 10.25C198.3 10.25 198.3 10.25 198.25 10.25L193.75 13.3C193.65 13.35 193.6 13.4 193.6 13.5C193.55 13.6 193.5 13.75 193.5 13.9V23.05C193.55 25.55 192.2 26 192.2 26C195 26.7 197.75 28.5 197.75 28.5C197.95 28.6 198.2 28.6 198.35 28.5L202.85 24.65C203.05 24.45 203.05 24.15 202.85 23.95L202.7 23.8C202.5 23.6 202.2 23.6 202 23.8L200.45 25.1C200.2 25.4 199.85 25.3 199.7 25.25L197.5 24.2C197.2 24.05 197.1 23.75 197.1 23.55V21.4C197.1 21.1 197.3 20.85 197.4 20.75M197.05 14.65C197.05 14.65 197.05 14.55 197.15 14.5L197.55 14.25C197.55 14.25 197.7 14.25 197.75 14.25L199.85 16.5C199.9 16.6 200 16.75 199.85 16.85L197.3 19.2C197 19.4 197.05 19.05 197.05 19.05V14.65Z"></path>
<path fill="#204C3E" d="M233.45 23.1V8.94996C233.45 5.79996 231.8 4.89996 231.8 4.89996C230.55 4.09996 229.7 4.99996 229.7 4.99996L227.4 7.34996C227.2 7.54996 227.25 7.84996 227.4 8.04996L227.55 8.14996C227.75 8.34996 228.05 8.29996 228.25 8.14996L228.9 7.49996C228.95 7.44996 229.35 7.14996 229.35 7.69996V9.79996V23.05V23.5C229.35 24.1 229.05 25.05 228.05 25.85C228.05 25.85 230.55 26.95 232.6 29.1C232.6 29.1 233.85 27.55 236.7 25.5C236.7 25.5 233.5 25.65 233.45 23.1Z"></path>
<path fill="#204C3E" d="M249.2 11.3502L248 12.3002C247.8 12.4502 247.65 12.3502 247.6 12.3002L236.9 5.05017V8.05017C236.9 8.05017 236.85 9.30017 238.5 10.3002L240.65 11.9502C240.65 12.0002 240.75 12.1002 240.65 12.2002L238.35 13.7502C238.35 13.7502 237.75 14.0002 237.75 14.9002V23.5002C237.75 23.5002 237.75 23.5002 237.75 23.6502V23.9002C237.75 24.5002 237.6 25.6002 236.7 26.1002C236.7 26.1002 239.75 26.3502 243.65 29.2002C243.65 29.2002 247.25 26.7002 249.5 25.8002V14.1002V11.4502C249.45 11.2002 249.2 11.4002 249.2 11.4002M245.45 25.1502C245.45 25.3502 245.3 25.3502 245.25 25.3502L241.8 23.6502V13.3502C241.8 13.3002 241.9 13.2502 242.05 13.3002L245.45 15.5002V25.2002V25.1502Z"></path>
</g>
<defs>
<clipPath id="clip0_5090_147">
<rect fill="white" height="30" width="250"></rect>
</clipPath>
</defs>
</svg>
