<svg xmlns="http://www.w3.org/2000/svg" fill="none" viewBox="0 0 138 25" height="25" width="138">
<g clip-path="url(#clip0_5090_187)">
<path fill="#204C3E" d="M61.1324 0.695801C53.3778 0.695801 49.2737 6.92249 49.2737 12.768C49.2737 19.3358 53.9343 24.3529 60.5102 24.3529C67.1524 24.3529 72.1937 19.4466 72.1937 12.2082C72.1937 5.35714 67.1524 0.695801 61.1324 0.695801ZM1.01966 1.21497V2.01996C3.77021 2.22725 3.97898 2.46777 4.01422 6.26135V18.7847C4.01422 22.572 3.73926 22.8184 0.8125 23.0265V23.83H8.81814C11.4589 23.83 13.6835 23.4816 15.4611 22.5056C17.4763 21.3604 18.6946 19.6164 18.6946 17.1515C18.6946 13.636 15.8417 11.7564 12.6766 11.304V11.2368C14.3414 10.818 17.2286 9.32438 17.2286 6.26142C17.2286 4.52281 16.6063 3.27149 15.4248 2.4383C14.2743 1.63357 12.8458 1.21503 10.3426 1.21503L1.01966 1.21497ZM24.813 1.21497V2.01996C27.5982 2.22806 27.8767 2.46777 27.8767 6.26135V18.7847C27.8767 22.572 27.5982 22.8184 24.6741 23.0265V23.8286H33.9317V23.0265C31.076 22.8184 30.7981 22.572 30.7981 18.7847V13.8817H32.677C33.7571 13.8817 34.3129 14.2294 34.8654 15.1309C35.8408 16.7661 37.3048 19.3358 38.3829 20.9086C39.7026 22.8177 40.9237 24.0374 44.9211 24.1448H45.4078L45.481 23.4809C44.2243 23.1701 43.5987 22.611 42.8704 21.7416C41.9292 20.6958 41.1975 19.7627 39.9456 17.9154C38.9038 16.3875 37.4787 13.9851 36.849 12.9385C39.6684 11.7927 41.4452 9.73923 41.4452 6.8514C41.4452 4.83422 40.5357 3.27122 39.1475 2.40024C37.8626 1.52926 35.8763 1.21503 33.6537 1.21503L24.813 1.21497ZM75.5635 1.21497V2.01868C77.5505 2.22678 78.0674 2.46851 79.0072 5.35667L85.0285 24.0376H86.0019L91.6674 7.09528L91.7413 7.02479L97.9976 24.0376H98.9441C101.864 14.4719 104.402 6.473 104.717 5.60102C105.865 2.4383 106.107 2.29753 108.402 2.01895V1.21523H101.025V2.01895L102.039 2.15656C103.596 2.32942 103.777 2.74977 103.294 4.76696C102.697 7.26914 100.676 14.6092 99.2596 18.9953L99.179 18.9947L92.8892 1.56631L92.0501 1.56624L86.4852 19.0275H86.4181L81.7191 4.20906C81.2358 2.67546 81.4439 2.36345 83.008 2.15616L84.0887 2.01855V1.21483L75.5635 1.21497ZM112.544 1.21497V2.01868C114.001 2.12354 114.934 2.36459 115.605 3.19865C116.229 3.99579 116.263 4.55604 116.263 7.06212V14.6079C116.263 18.263 116.122 20.1439 115.988 21.2193C115.807 22.4357 114.907 22.9546 112.994 23.0264V23.8286H121.345V23.0264C119.042 22.921 118.109 22.4357 117.934 21.2193C117.793 20.1439 117.653 18.263 117.653 14.6079V5.74239L117.726 5.74212L132.83 24.0733H133.73V10.433C133.73 6.77924 133.864 4.90752 134.005 3.82509C134.179 2.61008 135.086 2.08971 136.992 2.01842V1.2147H128.648V2.01842C130.937 2.12327 131.884 2.61008 132.058 3.82509C132.199 4.90752 132.333 6.77924 132.333 10.433V18.7494H132.266L117.619 1.21436L112.544 1.21497ZM60.2323 1.84563C65.2044 1.84563 68.8239 5.98358 68.8239 13.4983C68.8239 19.9708 65.4138 23.2016 61.2405 23.2016C56.161 23.2016 52.6462 18.4711 52.6462 11.7563C52.6462 5.21872 56.1261 1.84563 60.2323 1.84563ZM9.15888 2.22712C13.2684 2.22712 14.1344 4.55604 14.1344 6.64284C14.1344 9.49415 12.4649 11.0589 9.12599 11.0589H6.9336V3.33922C6.9336 2.6425 7.04033 2.50536 7.2444 2.43823C7.52566 2.33083 8.01435 2.22712 9.15888 2.22712ZM33.061 2.22712C35.6676 2.22712 38.3117 3.68721 38.3117 7.33667C38.3117 9.04574 37.7915 10.7474 36.2979 11.9302C35.3541 12.6948 34.2445 12.872 32.8173 12.872H30.7981V3.33989C30.7981 2.64297 30.9022 2.46817 31.1089 2.40017C31.3889 2.297 31.8769 2.22712 33.061 2.22712ZM6.9336 12.0721H8.95145C12.5361 12.0721 15.3205 13.8093 15.3205 17.6C15.3205 21.2893 12.8469 22.7514 9.92816 22.7514C7.38805 22.7836 6.9336 21.9868 6.9336 19.6555V12.0721Z"></path>
</g>
<defs>
<clipPath id="clip0_5090_187">
<rect fill="white" height="25" width="137.526"></rect>
</clipPath>
</defs>
</svg>
