<svg viewBox="0 0 200 54" version="1.1" xmlns="http://www.w3.org/2000/svg" id="Layer_1">
  
  <defs>
    <style>
      .st0 {
        fill: #204c3e;
      }
    </style>
  </defs>
  <path d="M113.3,18.2c0-5.8.1-11.2.4-16.2l-15.3,2.9v1.4l1.5.2c1.1.1,1.8.5,2.2,1.1.4.7.7,1.7.9,3.2.2,2.9.4,9.5.3,19.9,0,10.3-.1,16.8-.3,19.3,5.5,1.2,9.8,1.7,13,1.7,6,0,10.7-1.7,14.1-5.2,3.4-3.4,5.2-8.2,5.2-14.1,0-4.7-1.3-8.6-3.9-11.7-2.6-3.1-5.9-4.6-9.8-4.6-2.6,0-5.3.7-8.3,2.1ZM113.6,49c-.2-3.2-.4-12.8-.4-28.5.9-.3,2.1-.5,3.6-.5,2.4,0,4.3,1.2,5.7,3.7,1.4,2.5,2.1,5.5,2.1,9.3,0,4.7-.8,8.5-2.4,11.7-1.6,3.1-3.6,4.7-6.1,4.7-.8-.2-1.6-.3-2.5-.4ZM41,3H1v2l2.1.2c1.6.3,2.7.9,3.4,1.8.7,1,1.1,2.6,1.2,4.8.8,10.8.8,20.9,0,30.2-.2,2.2-.6,3.8-1.2,4.8-.7,1-1.8,1.6-3.4,1.8l-2.1.3v2h25.8v-2l-2.7-.2c-1.33-.11-2.56-.76-3.4-1.8-.7-1-1.1-2.6-1.2-4.8-.3-4-.5-8.6-.5-13.7l5.4.1c2.9.1,4.9,2.3,5.9,6.7h2v-16.3h-2c-1,4.3-2.9,6.5-5.9,6.6l-5.4.1c0-9,.2-15.4.5-19.3h7.9c5.6,0,9.4,3.6,11.6,10.8l2.4-.7-.4-13.4ZM36.3,33.8c0,5.2,1.5,9.5,4.4,12.9,2.9,3.4,7.2,5,12.6,5s9.8-1.7,13-5.2c3.2-3.4,4.7-7.7,4.7-12.9s-1.5-9.5-4.4-12.9-7.2-5-12.6-5-9.8,1.7-13,5.2c-3.2,3.4-4.7,7.7-4.7,12.9ZM58.6,22.4c1.2,2.9,1.7,6.7,1.7,11.3,0,10.6-2.2,15.8-6.5,15.8-2.2,0-3.9-1.5-5.1-4.5-1.2-3-1.7-6.8-1.7-11.3,0-10.5,2.2-15.7,6.5-15.7,2.2-.1,3.9,1.4,5.1,4.4ZM143.1,46.7c3.3,3.3,7.5,5,12.5,5,3.1,0,5.8-.6,8.2-1.9,2.4-1.2,4.3-2.7,5.6-4.5l-1-1.2c-2.2,1.7-4.7,2.5-7.6,2.5-4,0-7.1-1.3-9.2-4-2.2-2.7-3.2-6.1-3-10.5h21.4c0-4.8-1.2-8.7-3.7-11.8-2.5-3-6-4.5-10.5-4.5-5.6,0-9.9,1.8-13,5.3s-4.6,7.8-4.6,12.9,1.6,9.4,4.9,12.7h0ZM150.5,21.6c1.1-2.4,2.5-3.6,4.4-3.6,3,0,4.5,3.8,4.5,11.5l-10.6.2c.1-3,.6-5.7,1.7-8.1h0ZM196.9,17.6c-2.7-1.2-6.1-1.9-10.2-1.9s-7.5,1.1-10,3.2-3.8,4.7-3.8,7.8c0,2.7.8,4.8,2.3,6.3s3.9,2.8,7,3.9c2.8,1,4.8,2,5.8,2.9,1,1,1.6,2.1,1.6,3.6,0,1.4-.5,2.7-1.6,3.7-1,1.1-2.4,1.6-4.2,1.6-4.4,0-7.7-3.2-10-9.6l-1.7.5.4,10c3.6,1.4,7.6,2.1,12,2.1s8.1-1,10.7-3.1c2.6-2,3.9-4.9,3.9-8.5,0-2.4-.6-4.4-1.9-5.9-1.3-1.5-3.4-2.8-6.4-4-3.3-1.2-5.6-2.3-6.8-3.3s-1.8-2.2-1.8-3.7.4-2.7,1.3-3.7,2-1.4,3.4-1.4c4,0,6.9,2.9,8.7,8.6l1.7-.5-.4-8.6ZM100.7,16.7c-1.4-.7-2.9-1-4.6-1s-3.4.7-5.3,2.1-3.3,3.3-4.4,5.9l.1-8-15.2,3v1.4l1.5.1c1.9.2,3,1.7,3.2,4.4.6,6.2.6,12.8,0,19.8-.2,2.7-1.3,4.1-3.2,4.4l-1.5.2v1.9h21.2v-1.9l-2.7-.2c-1.9-.2-3-1.7-3.2-4.4-.6-5.8-.7-12-.2-18.4.6-1,1.9-1.6,3.9-1.8,2-.2,4.3.4,6.7,1.8,0,0,3.7-9.3,3.7-9.3Z" class="st0"></path>
</svg>