<svg viewBox="0 0 600 246.9" version="1.1" xmlns="http://www.w3.org/2000/svg">
  
  <defs>
    <style>
      .st0 {
        fill: #204c3e;
      }
    </style>
  </defs>
  <g id="layer">
    
    <path d="M62.3,0c25.4,0,38.8,12.5,39.2,37.8v54.9h-41v-49.4c0-5.1-2.3-7.4-6.5-7.4h-4.6c-5.1,0-6.9,2.3-7.4,6.9v34.6c-.6,6.1,2,12,6.9,15.7l.9.5,34.2,25.8c12.9,9.7,17.5,18.5,18,35.1v53.2c0,25.8-12.5,38.8-37.8,39.2h-25c-25.8,0-38.8-12.5-39.2-37.8v-61.4h41.5v55.4c0,5.1,1.8,7.4,6.5,7.4h4.6c5.1,0,6.9-2.3,7.4-6.9v-39.7c.6-6.1-2-12-6.9-15.7l-.9-.5-34.2-25.9C4.6,112.1.5,102.9,0,86.7v-47.5C0,13.4,12.5.4,37.8,0h24.5ZM267.7,0c25.8,0,38.8,12.5,39.2,37.8v56.8h-41.5v-50.8c0-5.1-2.3-7.4-6.5-7.4h-6.9c-3.6-.4-6.9,2.2-7.4,5.9,0,.4-.1.7,0,1.1v160.2c0,5.1,2.3,7.4,6.5,7.4h7.8c5.1,0,7.4-2.3,7.4-6.9v-58.2h-12.9v-35.5h54.5v96.5c0,25.8-12.5,38.8-37.8,39.2h-28.2c-25.8,0-38.8-12.5-39.2-37.8V39.2c0-25.8,12.5-38.8,37.8-39.2h27.2ZM190.6,1.8l-10.6,37.4h-23.5v65.5h33.2v37.4h-33.2v102h-42V1.8h76.1ZM399.7,1.8l27.7,242.3h-42l-3.7-35.5h-25.8l-3.2,35.5h-38.3L342,1.8h57.7ZM512.3,1.8v37.4h-25.4v204.9h-42.5V39.2h-25.4V1.8h93.3ZM599.1,1.8l-10.6,37.4h-23.5v63.2h34.6v37.4h-34.6v66.5h35l-8.8,37.8h-68.3V1.8h76.2ZM368.8,60.5l-9.7,111.7h19.8l-10.1-111.7Z" class="st0" id="Combined-Shape"></path>
  </g>
</svg>